<svg width="570" height="594" viewBox="0 0 570 594" fill="none" xmlns="http://www.w3.org/2000/svg">
<path d="M165.858 478.537C164.408 478.761 162.702 478.879 162.356 480.68C162.089 482.076 162.19 483.512 162.992 484.723C164.363 486.792 166.4 488 168.853 487.574C171.046 487.192 174.058 485.12 174.058 482.546C174.058 481.094 173.056 479.633 172.227 478.547C171.338 477.382 170.57 476.158 169.451 475.206C167.941 473.922 166.722 473.796 165.365 475.31C164.622 476.139 163.92 477.269 163.595 478.354C163.435 478.888 163.552 479.317 163.552 479.853C163.552 480.568 163.425 479.514 163.552 479.16" stroke="#00ADB5" stroke-opacity="0.5" stroke-linecap="round" stroke-linejoin="round"/>
<path d="M173.375 482.627C174.609 483.77 175.655 484.803 177.837 484.859C179.365 484.898 180.893 484.5 182.325 484.072C183.35 483.766 186.636 482.142 183.973 482.011" stroke="#00ADB5" stroke-opacity="0.5" stroke-linecap="round" stroke-linejoin="round"/>
<path d="M186.102 472.657C184.473 474.533 182.225 478.209 183.069 481.026C183.366 482.017 183.797 482.684 184.355 483.53C185.478 485.234 187.218 484.703 188.797 484.258C189.941 483.935 191.301 482.919 191.739 481.764C192.344 480.169 191.084 477.675 190.031 476.577C188.855 475.351 187.924 473.859 186.614 472.786C186.266 472.5 186.001 472.191 185.546 472.296C185.035 472.415 184.825 472.925 185.504 472.925" stroke="#00ADB5" stroke-opacity="0.5" stroke-linecap="round" stroke-linejoin="round"/>
<path d="M301.24 215.621C299.789 215.845 298.083 215.963 297.738 217.764C297.47 219.16 297.571 220.596 298.374 221.807C299.744 223.876 301.781 225.084 304.234 224.658C306.427 224.276 309.439 222.204 309.439 219.63C309.439 218.178 308.437 216.717 307.608 215.631C306.719 214.466 305.951 213.242 304.832 212.29C303.323 211.006 302.103 210.88 300.746 212.394C300.004 213.223 299.301 214.353 298.976 215.438C298.816 215.972 298.934 216.401 298.934 216.937C298.934 217.652 298.806 216.598 298.934 216.244" stroke="#00ADB5" stroke-opacity="0.5" stroke-linecap="round" stroke-linejoin="round"/>
<path d="M308.756 219.711C309.99 220.854 311.036 221.887 313.219 221.943C314.747 221.982 316.274 221.584 317.706 221.156C318.731 220.85 322.017 219.226 319.354 219.095" stroke="#00ADB5" stroke-opacity="0.5" stroke-linecap="round" stroke-linejoin="round"/>
<path d="M321.483 209.741C319.854 211.617 317.606 215.293 318.45 218.11C318.747 219.101 319.178 219.768 319.736 220.614C320.859 222.318 322.599 221.787 324.178 221.342C325.322 221.019 326.682 220.003 327.12 218.848C327.725 217.253 326.465 214.759 325.412 213.661C324.236 212.435 323.305 210.943 321.995 209.87C321.647 209.585 321.382 209.275 320.927 209.38C320.416 209.499 320.206 210.009 320.885 210.009" stroke="#00ADB5" stroke-opacity="0.5" stroke-linecap="round" stroke-linejoin="round"/>
<path d="M176.317 161.09C184.679 156.935 191.439 150.065 198.236 143.587C203.578 138.495 209.181 133.464 215.077 129.07C216.24 128.203 217.883 126.458 219.456 127.202C221.014 127.939 221.913 129.945 223.144 131.133C226.178 134.059 228.905 137.634 231.399 141.073C234.144 144.858 230.027 146.952 227.482 149.431C224.592 152.245 221.831 155.148 218.673 157.632C215.672 159.993 213.26 163.247 210.513 165.92C206.325 169.994 202.409 174.33 198.233 178.408C195.748 180.835 192.896 182.817 190.502 185.33C189.664 186.211 188.888 187.375 187.921 188.109C187.144 188.698 186.069 186.433 185.792 186.006C183.597 182.62 180.197 180.304 178.048 176.762C176.696 174.535 175.787 171.787 174.169 169.754C173.397 168.783 171.466 166.598 172.312 165.18C173.176 163.732 175.628 163.038 176.966 162.001C178.008 161.193 179.276 160.195 180.463 159.633C181.325 159.224 182.172 158.5 182.943 157.942C184.973 156.475 182.822 157.102 181.449 157.648" stroke="#00ADB5" stroke-opacity="0.5" stroke-linecap="round" stroke-linejoin="round"/>
<path d="M177.595 167.738C182.685 171.024 187.252 175.781 191.226 180.471C191.326 180.59 192.293 181.293 192.146 181.553C191.861 182.056 188.557 179.788 188.242 179.561" stroke="#00ADB5" stroke-opacity="0.5" stroke-linecap="round" stroke-linejoin="round"/>
<path d="M182.641 162.986C186.768 164.218 189.228 166.564 192.56 169.073C194.045 170.191 195.556 171.199 196.889 172.514C197.514 173.131 197.96 173.944 198.538 174.609C199.33 175.521 196.095 173.55 195.714 173.323" stroke="#00ADB5" stroke-opacity="0.5" stroke-linecap="round" stroke-linejoin="round"/>
<path d="M188.638 159.302C191.526 162.021 194.429 164.702 197.408 167.311C198.54 168.302 199.824 169.212 200.802 170.379C202.537 172.452 200.264 169.762 199.493 169.003" stroke="#00ADB5" stroke-opacity="0.5" stroke-linecap="round" stroke-linejoin="round"/>
<path d="M192.685 156.711C194.827 158.069 197.064 159.385 198.878 161.217C199.622 161.968 200.24 162.854 201.035 163.55C202.015 164.407 202.874 165.408 203.86 166.241C205.265 167.428 205.476 167.774 203.807 166.285" stroke="#00ADB5" stroke-opacity="0.5" stroke-linecap="round" stroke-linejoin="round"/>
<path d="M197.902 152.722C200.265 154.651 202.452 156.61 204.429 158.963C205.304 160.005 206.009 161.208 207.12 162.008C208.138 162.74 208.851 162.952 207.66 161.762" stroke="#00ADB5" stroke-opacity="0.5" stroke-linecap="round" stroke-linejoin="round"/>
<path d="M202.923 148.657C205.004 150.288 207.056 151.776 208.718 153.877C209.479 154.838 210.08 155.943 210.93 156.83C212.655 158.631 211.469 157.723 210.22 156.501" stroke="#00ADB5" stroke-opacity="0.5" stroke-linecap="round" stroke-linejoin="round"/>
<path d="M207.556 144.439C210.477 147.353 212.924 150.768 215.851 153.647C217.821 155.585 214.998 152.479 214.536 151.927" stroke="#00ADB5" stroke-opacity="0.5" stroke-linecap="round" stroke-linejoin="round"/>
<path d="M213.211 141.085C215.67 140.038 218.221 138.79 219.543 136.231C219.907 135.526 220.377 134.911 220.526 134.116C220.732 133.024 220.692 133.492 219.916 134.199" stroke="#00ADB5" stroke-opacity="0.5" stroke-linecap="round" stroke-linejoin="round"/>
<path d="M217.17 144.607C219.12 142.72 221.299 140.659 222.728 138.264C223.44 137.07 224.797 135.612 222.9 137.339" stroke="#00ADB5" stroke-opacity="0.5" stroke-linecap="round" stroke-linejoin="round"/>
<path d="M223.421 148.562C225.197 146.549 226.778 144.676 228.413 142.571C228.941 141.891 230.55 141.009 228.614 141.548" stroke="#00ADB5" stroke-opacity="0.5" stroke-linecap="round" stroke-linejoin="round"/>
<path d="M222.007 147.545C223.867 145.883 225.969 143.948 227.443 141.85C227.836 141.29 228.138 140.667 228.498 140.085C229.101 139.111 229.139 139.44 228.225 139.54" stroke="#00ADB5" stroke-opacity="0.5" stroke-linecap="round" stroke-linejoin="round"/>
<path d="M182.614 171.095C191.878 167.17 194.163 156.519 201.712 150.496C202.63 149.763 203.376 148.948 204.447 148.441C205.163 148.102 206.047 147.94 206.699 147.506C207.096 147.241 210.398 144.61 208.104 145.697" stroke="#00ADB5" stroke-opacity="0.5" stroke-linecap="round" stroke-linejoin="round"/>
<path d="M178.301 168.246C179.341 166.928 180.264 165.8 181.583 164.846C181.799 164.69 182.133 164.663 182.311 164.454C182.663 164.041 183.197 163.436 183.333 162.902C183.867 160.8 186.481 161.189 187.869 160.135C189.189 159.133 190.46 158.118 191.806 157.127C193.289 156.036 193.975 155.079 195.166 153.681C196.259 152.396 197.321 151.097 198.479 149.881C199.427 148.886 200.915 147.981 201.518 146.708C202.199 145.271 203.938 143.627 205.503 143.893C206.041 143.984 209.991 146.372 207.409 144.845" stroke="#00ADB5" stroke-opacity="0.5" stroke-linecap="round" stroke-linejoin="round"/>
<path d="M186.684 173.384C193.644 169.554 197.508 161.205 202.209 154.898C203.941 152.575 206.416 151.031 208.228 148.749C209.004 147.772 210.716 146.735 208.725 146.752" stroke="#00ADB5" stroke-opacity="0.5" stroke-linecap="round" stroke-linejoin="round"/>
<path d="M189.169 175.748C195.476 171.704 199.515 164.18 204.104 158.217C206.192 155.505 208.207 152.735 210.32 150.045C211.284 148.818 212.964 148.052 210.808 149.308" stroke="#00ADB5" stroke-opacity="0.5" stroke-linecap="round" stroke-linejoin="round"/>
<path d="M191.654 179.969C195.589 175.966 198.767 171.646 201.987 167.016C203.946 164.2 205.638 161.036 207.938 158.5C209.257 157.046 210.273 155.343 211.47 153.801C211.953 153.179 212.286 152.456 212.782 151.84C213.899 150.452 213.12 151.707 212.342 152.46" stroke="#00ADB5" stroke-opacity="0.5" stroke-linecap="round" stroke-linejoin="round"/>
<path d="M192.579 181.723C194.538 179.722 197.407 177.796 198.714 175.2C199.188 174.258 200.362 171.983 201.186 171.406C202.274 170.644 202.793 169.022 203.585 168.002C204.41 166.94 205.217 165.904 206.112 164.893C206.952 163.946 207.22 162.283 208.259 161.468C209.417 160.56 209.98 159.154 210.904 158.07C211.703 157.132 213.224 156.159 214.216 155.442C214.765 155.045 215.149 154.504 215.772 154.209C217.035 153.611 216.215 153.917 215.059 153.872" stroke="#00ADB5" stroke-opacity="0.5" stroke-linecap="round" stroke-linejoin="round"/>
<path d="M213.052 141.835C214.673 142.281 216.67 142.587 218.147 143.507C219.1 144.102 219.93 144.698 218.194 143.616" stroke="#00ADB5" stroke-opacity="0.5" stroke-linecap="round" stroke-linejoin="round"/>
<path d="M214.735 139.014C217.046 139.644 218.68 140.35 220.564 141.632C221.797 142.47 221.599 142.238 220.315 141.431" stroke="#00ADB5" stroke-opacity="0.5" stroke-linecap="round" stroke-linejoin="round"/>
<path d="M217.539 136.168C219.523 137.333 221.449 138.656 223.501 139.669C224.708 140.265 224.075 140.224 223.143 139.754" stroke="#00ADB5" stroke-opacity="0.5" stroke-linecap="round" stroke-linejoin="round"/>
<path d="M219.136 133.894C221.223 134.885 223.146 135.872 225.068 137.118C225.944 137.687 225.149 137.724 224.484 137.264" stroke="#00ADB5" stroke-opacity="0.5" stroke-linecap="round" stroke-linejoin="round"/>
<path d="M214.076 140.844C215.653 138.889 217.235 137.037 218.67 135.033C219.078 134.463 221.562 131.293 220.489 132.916" stroke="#00ADB5" stroke-opacity="0.5" stroke-linecap="round" stroke-linejoin="round"/>
<path d="M215.732 144.276C217.784 142.385 220.741 139.863 221.403 137.037C221.598 136.205 222.02 135.374 222.64 134.802C223.268 134.221 223.924 133.959 222.986 134.937" stroke="#00ADB5" stroke-opacity="0.5" stroke-linecap="round" stroke-linejoin="round"/>
<path d="M214.087 144.212C216.275 141.755 218.144 140.103 219.38 137.076C219.701 136.29 220.069 135.639 220.596 135.02C221.154 134.364 221.956 133.75 220.878 134.924" stroke="#00ADB5" stroke-opacity="0.5" stroke-linecap="round" stroke-linejoin="round"/>
<path d="M222.215 145.422C223.222 146.089 224.232 146.706 225.279 147.26C225.712 147.489 225.177 147.046 224.993 146.974" stroke="#00ADB5" stroke-opacity="0.5" stroke-linecap="round" stroke-linejoin="round"/>
<path d="M224.178 142.131C224.246 142.192 228.206 145.731 227.504 144.941" stroke="#00ADB5" stroke-opacity="0.5" stroke-linecap="round" stroke-linejoin="round"/>
<path d="M226.53 140.848C227.404 141.725 230.079 144.289 229.137 143.493" stroke="#00ADB5" stroke-opacity="0.5" stroke-linecap="round" stroke-linejoin="round"/>
<path d="M221.045 146.82C222.493 145.414 225.667 142.628 226.445 140.467C226.752 139.616 228.156 138.521 226.836 139.692" stroke="#00ADB5" stroke-opacity="0.5" stroke-linecap="round" stroke-linejoin="round"/>
<path d="M221.227 147.239C221.365 147.354 224.134 150.465 224.724 148.956C225.026 148.187 225.418 147.184 226.158 146.76C227.455 146.015 227.694 143.671 229.022 143.042C230.528 142.328 230.387 141.132 228.985 140.707C228.433 140.541 228.868 139.408 228.296 139.497C227.772 139.578 227.494 139.377 226.909 139.489" stroke="#00ADB5" stroke-opacity="0.5" stroke-linecap="round" stroke-linejoin="round"/>
<path d="M212.87 141.416C213.82 143.308 213.999 143.995 215.531 144.784C215.945 144.997 216.485 144.702 216.799 144.868C217.42 145.197 218.647 145.203 219.111 144.607C220.043 143.406 220.386 142.632 221.814 141.902C222.715 141.441 223.44 140.355 223.857 139.454C224.315 138.464 225.14 137.718 225.624 136.724C225.83 136.301 224.167 135.211 224.152 134.479C224.148 134.271 222.174 134.265 221.845 134.091C221.447 133.88 221.265 133.583 221.074 133.145C220.795 132.504 220.3 133.299 219.55 133.36" stroke="#00ADB5" stroke-opacity="0.5" stroke-linecap="round" stroke-linejoin="round"/>
<path d="M179.984 165.425C182.227 166.314 184.183 167.461 186.203 168.73C187.956 169.831 189.937 170.418 191.679 171.486C192.92 172.246 194.207 173.982 195.122 175.121C195.427 175.501 195.655 175.857 195.871 176.285C196.367 177.267 195.851 174.893 195.799 174.632" stroke="#00ADB5" stroke-opacity="0.5" stroke-linecap="round" stroke-linejoin="round"/>
<path d="M201.644 147.576C202.266 148.257 204.785 152.017 204.288 149.191" stroke="#00ADB5" stroke-opacity="0.5" stroke-linecap="round" stroke-linejoin="round"/>
<path d="M206.828 408.6C207.095 410.032 207.774 410.962 208.3 412.265C208.658 413.152 209.328 413.839 209.7 414.709C210.103 415.649 210.706 416.753 211.268 417.59C211.749 418.307 212.065 418.987 212.672 419.62C213.745 420.74 214.558 422.074 215.636 423.178C217.204 424.782 219.859 426.875 222.143 426.743C222.876 426.7 223.689 426.938 224.409 426.824C225.026 426.727 225.776 426.695 226.394 426.806C227.411 426.989 228.514 426.805 229.486 427.024C230.011 427.142 230.582 426.969 231.114 427.072C231.803 427.205 232.61 427.239 233.312 427.239C235.61 427.239 237.903 427.224 240.195 426.92C241.437 426.756 242.667 427.185 243.897 426.957C245.051 426.744 246.588 426.965 247.673 426.469C249.007 425.861 250.334 424.903 251.364 423.829C251.881 423.29 252.273 422.646 252.623 421.98C253.083 421.105 253.338 420.161 253.8 419.288C255.411 416.243 256.329 412.854 257.633 409.68C257.941 408.932 258.446 408.326 258.814 407.635C258.907 407.46 258.949 407.237 259.101 407.069C259.67 406.441 258.581 406.374 258.08 406.137" stroke="#00ADB5" stroke-opacity="0.5" stroke-linecap="round" stroke-linejoin="round"/>
<path d="M206.573 408.733C207.713 407.177 208.681 406.033 210.339 405.153C211.727 404.416 213.166 403.541 214.42 402.579C216.347 401.101 218.999 400.443 221.345 399.998C223.898 399.514 226.412 398.948 229.011 398.948C229.815 398.948 230.611 399.2 231.415 399.214C232.378 399.23 233.343 399.262 234.301 399.347C235.772 399.478 237.282 399.447 238.755 399.48C240.81 399.527 242.778 400.636 244.833 400.808C246.055 400.91 247.481 401.101 248.669 401.448C249.114 401.578 249.622 401.666 250.038 401.877C250.555 402.139 250.917 402.582 251.393 402.89C252.926 403.885 254.64 404.353 256.296 405.109C256.804 405.34 257.677 405.738 258.24 405.738C259.014 405.738 258.974 407.228 258.974 405.738" stroke="#00ADB5" stroke-opacity="0.5" stroke-linecap="round" stroke-linejoin="round"/>
<path d="M258.846 406.669C257.899 407.993 257.224 408.496 255.881 409.269C254.827 409.876 253.659 410.305 252.477 410.53C251.375 410.741 250.17 410.907 249.052 411C248.122 411.078 247.173 410.965 246.222 411.078C244.074 411.333 241.905 411.911 239.833 412.542C236.874 413.444 234.017 413.538 230.961 413.711C227.625 413.899 224.28 413.634 221.011 412.927C219.909 412.688 218.744 412.902 217.622 412.856C216.386 412.806 215.175 412.451 214.012 412.032C213.522 411.855 213.071 411.584 212.558 411.462C211.957 411.319 211.346 411.376 210.75 411.226C209.918 411.016 208.948 410.638 208.246 410.131C207.941 409.91 207.482 409.728 207.243 409.395C207.173 409.298 207.083 409.082 207.083 408.966C207.083 408.69 206.867 408.76 207.211 408.999" stroke="#00ADB5" stroke-opacity="0.5" stroke-linecap="round" stroke-linejoin="round"/>
<path d="M231.401 420.182C232.178 420.092 233.204 420.108 232.883 419.066C232.78 418.731 232.52 418.695 232.245 418.6C231.424 418.314 229.954 418.867 229.646 419.761C229.092 421.365 230.14 423.098 231.788 422.542C232.236 422.391 233.031 422.06 233.316 421.636C233.658 421.126 233.144 421.277 232.805 420.782" stroke="#00ADB5" stroke-opacity="0.5" stroke-linecap="round" stroke-linejoin="round"/>
<path d="M229.04 418.452C230.278 417.934 230.911 417.72 232.163 417.72C232.668 417.72 232.921 417.682 233.366 417.986C234.101 418.487 234.353 419.44 234.277 420.279C234.212 420.987 233.987 421.958 233.748 422.631C233.571 423.131 233.131 423.217 232.681 423.311C232.27 423.397 231.373 423.157 231.05 423.344C230.707 423.543 229.656 423.61 229.391 423.241C229.146 422.901 228.884 422.754 228.706 422.342C228.536 421.949 228.46 421.573 228.323 421.181C228.136 420.643 227.799 419.175 228.497 418.851C228.906 418.661 229.081 418.548 229.55 418.548C229.683 418.548 229.797 418.651 229.933 418.651C230.129 418.651 229.555 418.518 229.359 418.518" stroke="#00ADB5" stroke-opacity="0.5" stroke-linecap="round" stroke-linejoin="round"/>
<path d="M231.273 413.126C232.174 411.912 232.995 410.66 233.926 409.48C234.426 408.846 235.047 408.301 235.585 407.694C237.128 405.956 238.7 404.055 239.876 402.025C241.034 400.024 242.616 397.846 244.333 396.344C245.24 395.551 246.051 394.674 246.84 393.759C247.605 392.872 247.958 391.631 248.684 390.693C249.245 389.967 252.923 385.027 253.563 388.031C253.814 389.211 252.71 390.037 252.017 390.76C251.23 391.581 250.439 392.623 249.769 393.556C249.122 394.455 248.336 395.245 247.708 396.152C246.854 397.386 245.3 398.268 244.677 399.665C244.163 400.818 243.31 401.744 242.67 402.812C241.783 404.293 240.743 405.529 239.698 406.884C238.87 407.958 237.573 408.84 236.986 410.064C236.496 411.087 235.627 411.518 234.833 412.18C234.488 412.468 234.069 412.628 233.763 413.027C233.661 413.159 233.479 413.313 233.383 413.163C233.329 413.078 233.121 413.269 233.16 413.363C233.296 413.694 232.965 412.567 232.933 412.461" stroke="#00ADB5" stroke-opacity="0.5" stroke-linecap="round" stroke-linejoin="round"/>
<path d="M230.763 413.459C231.007 413.589 232.55 414.81 232.55 413.825C232.55 413.527 232.917 413.031 233.046 412.727C233.144 412.497 232.263 412.717 232.132 412.893C231.96 413.123 231.628 413.31 232.167 413.326C232.581 413.338 232.905 413.153 233.22 412.897C233.311 412.824 234.528 413.025 233.443 412.993C232.867 412.977 232.306 412.993 231.752 412.993C231.273 412.993 232.243 412.86 232.383 412.86C232.495 412.86 231.574 413.431 231.415 413.245C231.377 413.199 231.309 413.074 231.465 412.993" stroke="#00ADB5" stroke-opacity="0.5" stroke-linecap="round" stroke-linejoin="round"/>
<path d="M210.466 408.533C210.538 408.573 212.819 409.819 212.828 409.665C212.838 409.479 212.711 409.317 212.799 409.132C213.185 408.327 213.685 408.713 214.349 409.025C214.867 409.268 214.081 406.575 215.643 407.712C216.45 408.3 216.666 408.206 216.533 407.22C216.433 406.474 216.68 406.472 217.296 406.551C217.714 406.605 218.014 406.7 218.253 406.285C218.543 405.781 218.869 405.494 219.462 405.712C219.953 405.892 220.39 406.399 220.728 405.752C220.877 405.468 220.751 404.616 221.221 404.78C221.515 404.882 221.903 405.283 222.238 405.157C222.493 405.061 222.688 404.239 222.976 404.369C223.276 404.505 223.583 405.1 223.962 404.957C224.145 404.889 224.484 404.265 224.125 404.34" stroke="#00ADB5" stroke-opacity="0.5" stroke-linecap="round" stroke-linejoin="round"/>
<path d="M219.466 407.335C220.257 408.006 223.22 411.592 224.09 408.914C224.245 408.435 224.27 407.485 224.707 408.271C225.066 408.919 225.608 409.369 226.196 408.755C226.586 408.349 226.759 407.659 227.316 407.446C227.828 407.251 228.203 408.254 228.628 407.668C228.971 407.196 228.805 406.384 228.302 406.1C228.137 406.007 228.091 406.328 228.018 406.403" stroke="#00ADB5" stroke-opacity="0.5" stroke-linecap="round" stroke-linejoin="round"/>
<path d="M226.295 403.208C227.528 402.987 229.08 402.538 230.018 403.689C230.453 404.222 230.412 404.904 230.124 405.508C229.915 405.95 229.35 406.171 228.99 405.738C228.694 405.382 229.304 404.797 229.522 404.58C230.269 403.837 231.376 405.027 231.61 405.834C231.806 406.508 230.039 408.07 230.252 407.402" stroke="#00ADB5" stroke-opacity="0.5" stroke-linecap="round" stroke-linejoin="round"/>
<path d="M247.038 405.471C247.404 405.34 249.76 404.549 249.307 405.856C249.075 406.526 248.188 406.886 247.605 407.106C247.33 407.21 246.618 407.192 247.081 406.773C247.481 406.41 248.044 406.24 248.57 406.285C250.618 406.459 247.754 408.912 247.166 409.251C246.023 409.908 244.468 410.6 243.272 409.798" stroke="#00ADB5" stroke-opacity="0.5" stroke-linecap="round" stroke-linejoin="round"/>
<path d="M234.465 401.544C234.95 402.368 235.535 403.196 235.95 404.062C236.093 404.36 235.475 403.597 235.33 403.3C235.291 403.222 235.025 402.348 235 402.354C234.689 402.426 234.616 403.91 234.532 404.184C234.134 405.48 233.152 404.984 232.188 404.887C231.021 404.77 230.5 405.97 229.855 406.736C229.339 407.349 229.136 407.537 229.486 408.267C229.769 408.858 229.887 409.43 229.486 409.965C229.173 410.381 228.782 410.645 228.405 410.989C228.059 411.304 228.555 411.252 228.49 411.063C228.313 410.546 227.22 410.654 226.862 410.678C225.534 410.77 224.181 410.422 222.877 410.508C222.184 410.554 221.532 410.957 220.845 411.063C220.147 411.171 221.069 411.802 221.331 411.984C221.78 412.296 220.45 411.319 219.962 411.078C219.143 410.673 218.386 410.36 217.962 409.465C217.537 408.568 217.163 407.957 216.444 407.298C216.197 407.071 216.168 406.726 216.288 406.418C216.569 405.705 217.19 405.124 217.806 404.739" stroke="#00ADB5" stroke-opacity="0.5" stroke-linecap="round" stroke-linejoin="round"/>
<path d="M234.337 404.207C232.737 403.042 231.417 402.54 229.536 402.276C228.875 402.183 228.169 401.706 227.738 401.178C227.355 400.709 227.572 400.833 227.121 401.47C226.505 402.34 226.047 401.559 225.26 401.788C224.053 402.139 223.017 403.309 221.792 403.526C221.456 403.585 221.537 403 221.118 403.252C220.412 403.677 219.872 404.079 219.047 404.214C218.548 404.296 217.603 404.638 217.679 405.272" stroke="#00ADB5" stroke-opacity="0.5" stroke-linecap="round" stroke-linejoin="round"/>
<path d="M245.187 404.206C246.731 404.362 248.295 404.342 249.832 404.513C250.374 404.574 250.65 404.802 251.031 405.172C251.374 405.505 251.91 406.29 252.403 406.333C253.114 406.395 253.481 406.087 254.144 405.871C254.543 405.74 255.818 405.871 255.399 405.871" stroke="#00ADB5" stroke-opacity="0.5" stroke-linecap="round" stroke-linejoin="round"/>
<path d="M244.039 406.004C242.379 407.144 241.493 408.874 239.716 409.913C239.365 410.118 238.288 410.516 238.369 411.192C238.427 411.681 242.023 410.15 242.571 409.865" stroke="#00ADB5" stroke-opacity="0.5" stroke-linecap="round" stroke-linejoin="round"/>
<path d="M250.23 407.601C251.132 408.302 251.91 409.303 253.038 408.947C253.343 408.851 253.982 408.814 254.187 408.6" stroke="#00ADB5" stroke-opacity="0.5" stroke-linecap="round" stroke-linejoin="round"/>
<path d="M473.28 378.582C468.62 379.515 465.231 380.918 462.277 384.88C460.405 387.39 460.815 391.342 462.042 394.003C464.064 398.388 469.032 400.864 473.515 401.079C478.738 401.33 485.998 399.729 487.068 393.233C487.642 389.751 484.452 386.459 482.959 383.603C481.744 381.28 479.914 378.148 477.356 377.165C476.312 376.764 473.889 376.903 473.13 377.987C472.79 378.471 472.353 378.983 472.106 379.527C471.906 379.967 472.121 378.405 472.073 377.952" stroke="#00ADB5" stroke-opacity="0.5" stroke-linecap="round" stroke-linejoin="round"/>
<path d="M475.243 390.548C473.985 391.222 471.944 391.669 473.046 393.146C473.297 393.482 473.655 393.464 473.96 393.146C474.221 392.874 475.535 391.446 474.564 391.108C472.583 390.419 473.307 394.541 474.723 392.717C475.483 391.737 474.419 390.773 473.465 391.37C472.328 392.081 473.228 393.324 474.119 392.245C474.791 391.432 474.255 390.809 473.524 391.571C472.869 392.254 473.534 393.343 474.178 392.42C474.838 391.473 474.085 390.671 473.289 391.501C472.367 392.463 473.365 392.362 474.018 391.729C474.678 391.091 473.509 391.185 473.129 391.685C472.248 392.847 473.628 392.682 473.851 391.685C474.177 390.221 472.729 393.585 473.431 391.02" stroke="#00ADB5" stroke-opacity="0.5" stroke-linecap="round" stroke-linejoin="round"/>
<path d="M470.11 385.667C471.451 387.513 472.826 389.262 473.951 391.108C474.263 391.619 474.014 392.132 474.186 392.122C474.821 392.086 475.472 391.965 476.149 391.965C477.697 391.965 478.917 391.178 480.409 391.178C482.217 391.178 484.872 390.688 481.885 389.131" stroke="#00ADB5" stroke-opacity="0.5" stroke-linecap="round" stroke-linejoin="round"/>
<path d="M468.6 378.424C468.319 376.936 466.94 373.328 469.506 373.71C470.427 373.847 471.045 374.84 471.586 375.468C472.995 377.101 472.845 379.072 470.563 379.212C469.965 379.248 469.124 380.484 468.45 379.605C467.686 378.61 468.465 378.677 468.6 377.48C468.689 376.697 468.199 376.762 467.988 375.993C467.827 375.403 468.162 374.757 468.299 374.331" stroke="#00ADB5" stroke-opacity="0.5" stroke-linecap="round" stroke-linejoin="round"/>
<path d="M469.506 376.693C469.493 377.069 468.937 380.457 470.119 379.903C470.514 379.717 470.856 379.447 471.016 379.019C471.171 378.605 471.006 378.357 470.832 377.952C470.381 376.909 469.075 375.287 469.473 377.637C469.724 379.12 471.312 378.774 471.435 377.357C471.53 376.276 470.222 374.827 469.389 376.063C468.8 376.937 469.849 378.865 470.463 377.515C470.774 376.829 470.029 375.086 469.238 375.94C468.427 376.817 469.646 378.665 470.446 377.917C471.237 377.178 470.699 374.922 469.842 375.783C469.058 376.57 470.234 378.137 470.832 376.937C471.498 375.599 470.03 374.591 469.574 375.993C469.166 377.244 470.437 378.591 470.731 376.885C470.955 375.587 468.668 374.896 468.668 376.448C468.668 377.877 469.892 377.73 469.892 376.43C469.892 375.075 468.584 375.38 469.129 376.518C469.675 377.655 470.406 375.636 469.792 374.996C469.075 374.248 468.126 375.404 468.97 376.124C469.545 376.615 470.331 374.578 469.364 374.2C468.528 373.873 468.99 375.652 469.28 375.249C469.729 374.625 469.041 374.207 469.515 374.331C469.933 374.44 470.948 374.672 471.234 375.057C471.46 375.359 472.375 377.043 472.375 377.48C472.375 378.817 470.413 379.538 469.288 379.203C468.481 378.962 468.242 379.557 468.525 379.36C469.212 378.883 469.355 377.637 469.355 378.11" stroke="#00ADB5" stroke-opacity="0.5" stroke-linecap="round" stroke-linejoin="round"/>
<path d="M469.355 400.939C468.578 402.659 467.888 404.387 466.974 406.013C466.768 406.379 466.382 407.126 466.336 407.552C466.214 408.701 467.32 404.813 467.544 404.246" stroke="#00ADB5" stroke-opacity="0.5" stroke-linecap="round" stroke-linejoin="round"/>
<path d="M484.603 397.633C486.515 400.151 488.623 401.946 490.113 404.709C490.26 404.982 490.514 405.198 490.717 405.409C491.395 406.117 489.458 403.9 488.83 403.144" stroke="#00ADB5" stroke-opacity="0.5" stroke-linecap="round" stroke-linejoin="round"/>
<path d="M357.97 250.832C359.166 255.537 363.782 273.03 364.886 279.421C367.927 297.02 363.156 273.007 363.144 280.779" stroke="#00ADB5" stroke-opacity="0.5" stroke-width="2" stroke-linecap="round" stroke-linejoin="round"/>
<path d="M349.869 258.439C349.461 251.279 347.921 241.34 357.548 242.363C362.077 242.845 367.066 245.649 369.89 249.4C374.253 255.197 371.951 264.182 367.236 268.796C364.727 271.251 362.293 272.481 359.009 273.409C353.446 274.981 357.836 266.923 358.732 264.714" stroke="#00ADB5" stroke-opacity="0.5" stroke-width="2" stroke-linecap="round" stroke-linejoin="round"/>
<path d="M374.909 267.19C384.474 266.657 393.279 264.693 396.701 275.512C398.69 281.8 401.112 289.439 399.454 296.066C397.956 302.053 394.73 305.797 388.83 303.246C380.4 299.601 380.412 292.739 385 285.896C386.689 283.377 393.159 278.331 393.164 275.385" stroke="#00ADB5" stroke-opacity="0.5" stroke-width="2" stroke-linecap="round" stroke-linejoin="round"/>
<path d="M392.15 255.515C391.824 258.14 391.818 276.709 387 276.887C386.096 276.921 385.337 277.411 384.548 277.821C381.514 279.397 383.36 277.979 384.492 276.339C387.058 272.625 392.254 273.997 394.855 269.068C397.68 263.715 398.982 261.082 394.931 256.941C392.093 254.039 393.34 249.102 391.105 256.057" stroke="#00ADB5" stroke-opacity="0.5" stroke-width="2" stroke-linecap="round" stroke-linejoin="round"/>
<path d="M406.268 238.663C409.965 247.344 413.344 258.649 419.274 266.205C420.842 268.202 421.721 266.463 421.698 264.908C421.668 262.943 421.136 260.961 420.59 259.1" stroke="#00ADB5" stroke-opacity="0.5" stroke-width="2" stroke-linecap="round" stroke-linejoin="round"/>
<path d="M395.534 261.236C401.4 258.829 415.802 256.393 418.257 248.754" stroke="#00ADB5" stroke-opacity="0.5" stroke-width="2" stroke-linecap="round" stroke-linejoin="round"/>
<path d="M413.574 238.948C438.999 285.328 414.229 252.73 427.151 244.247C434.995 239.098 435.65 263.366 437.823 252.868" stroke="#00ADB5" stroke-opacity="0.5" stroke-width="2" stroke-linecap="round" stroke-linejoin="round"/>
<path d="M436.281 237.352C437.203 240.229 440.301 259.217 446.751 254.879C449.635 252.94 452.994 249.241 453.55 245.606C454.147 241.705 451.811 231.796 446.524 232.863C444.111 233.35 440.076 233.467 438.502 235.859C436.98 238.17 436.02 243.583 437.846 237.899" stroke="#00ADB5" stroke-opacity="0.5" stroke-width="2" stroke-linecap="round" stroke-linejoin="round"/>
<path d="M454.295 232.755C461.505 227.927 469.979 226.342 471.076 237.712C471.214 239.138 471.239 240.936 471.867 242.249C472.594 243.772 471.1 238.526 469.684 237.679" stroke="#00ADB5" stroke-opacity="0.5" stroke-width="2" stroke-linecap="round" stroke-linejoin="round"/>
<path d="M453.766 237.108C454.092 243.052 453.278 251.103 455.94 256.678C456.031 256.869 456.664 258.323 456.345 257.526C455.714 255.949 455.452 254.878 454.264 253.168" stroke="#00ADB5" stroke-opacity="0.5" stroke-width="2" stroke-linecap="round" stroke-linejoin="round"/>
<path d="M271.286 290.912C270.287 300.572 272.028 330.313 256.297 328.463C253.017 328.077 250.038 327.505 248.48 324.283C246.848 320.908 245.499 317.971 245.336 314.139C245.137 309.43 246.934 307.208 250.584 305.083C251.864 304.338 249.113 307.355 248.87 307.647C247.266 309.569 252.709 307.226 254.789 306.745" stroke="#00ADB5" stroke-opacity="0.5" stroke-width="2" stroke-linecap="round" stroke-linejoin="round"/>
<path d="M291.482 295.553C283.525 296.329 272.293 297.903 271.01 308.284C270.314 313.916 278.341 314.6 281.826 316.518C287.812 319.814 292.355 330.561 285.64 335.29C280.97 338.579 277.438 336.832 272.895 337.16C268.281 337.493 271.494 335.72 274.23 335.233" stroke="#00ADB5" stroke-opacity="0.5" stroke-width="2" stroke-linecap="round" stroke-linejoin="round"/>
<path d="M334.599 39.9541C333.961 46.6189 333.573 53.3519 332.785 60.0009C332.709 60.6406 332.105 63.166 332.819 61.1242C333.341 59.6314 333.173 58.0756 334.011 56.66C335.166 54.7102 340.385 47.2828 342.836 48.0341C347.748 49.5399 342.79 59.0426 341.383 61.7655C340.898 62.7047 339.577 64.7418 340.261 65.795C341.173 67.199 342.861 62.0103 342.932 61.8516" stroke="#00ADB5" stroke-opacity="0.5" stroke-width="2" stroke-linecap="round" stroke-linejoin="round"/>
<path d="M353.999 44.3304C353.417 47.3081 348.527 62.0055 353.239 64.4399C354.569 65.127 357.51 63.8302 358.424 62.7122C359.376 61.548 358.878 59.7654 358.775 58.4142" stroke="#00ADB5" stroke-opacity="0.5" stroke-width="2" stroke-linecap="round" stroke-linejoin="round"/>
<path d="M344.306 44.6516C349.475 46.2549 354.791 47.3224 359.928 48.9765C361.14 49.367 361.595 49.5439 362.247 50.6719C363.263 52.4265 360.566 50.8237 360.1 50.2922" stroke="#00ADB5" stroke-opacity="0.5" stroke-width="2" stroke-linecap="round" stroke-linejoin="round"/>
<path d="M367.683 55.0692C366.497 58.8052 365.381 62.5881 364.027 66.2644C363.758 66.9954 363.717 67.2627 363.572 66.7044C363.433 66.1666 363.297 65.8497 363.526 65.2817C364.742 62.2633 367.583 57.9251 370.261 56.2391C373.154 54.4184 371.576 60.534 371.187 61.7719C370.751 63.1623 369.575 66.973 370.912 63.2857C371.707 61.0912 373.533 55.6374 376.611 56.4312C378.475 56.9119 378.044 59.5404 377.715 60.9303C377.107 63.4934 376.504 66.0393 375.894 68.6108C375.003 72.3687 375.484 70.3393 376.135 67.5933" stroke="#00ADB5" stroke-opacity="0.5" stroke-width="2" stroke-linecap="round" stroke-linejoin="round"/>
<path d="M390.662 46.8894C388.805 53.8556 386.527 60.8018 384.927 67.8405C384.739 68.6659 384.33 71.7225 385.59 72.0865C386.787 72.4324 391.517 69.4685 390.361 68.4409" stroke="#00ADB5" stroke-opacity="0.5" stroke-width="2" stroke-linecap="round" stroke-linejoin="round"/>
<path d="M69.1722 331.042C64.7807 339.743 60.4033 348.452 55.9999 357.147C54.745 359.625 52.2677 367.207 51.9611 364.422C51.5452 360.647 53.7569 355.361 54.6953 351.824C56.0198 346.831 58.7167 336.856 65.4368 336.893C70.5095 336.921 76.2123 344.679 76.9989 349.52C77.5544 352.937 79.1695 349.078 81.3617 348.047" stroke="#00ADB5" stroke-opacity="0.5" stroke-width="2" stroke-linecap="round" stroke-linejoin="round"/>
<path d="M82.7844 358.918C85.7355 366.075 90.0857 378.176 99.0439 371.519C103.16 368.46 101.115 363.225 97.0512 361.562C87.0929 357.488 74.5448 368.866 72.0613 378.219C69.5783 387.569 79.3801 390.436 86.1228 391.36C89.8538 391.871 89.017 388.545 92.2274 387.387" stroke="#00ADB5" stroke-opacity="0.5" stroke-width="2" stroke-linecap="round" stroke-linejoin="round"/>
<path d="M107.585 383.667C99.8495 380.298 89.6009 377.294 85.2414 387.605C83.1402 392.575 92.5443 393.157 95.3335 393.021C100.661 392.759 112.524 379.897 108.527 383.58C105.02 386.812 101.47 390.627 100.028 395.4C99.0966 398.483 100.166 405.294 103.593 400.59" stroke="#00ADB5" stroke-opacity="0.5" stroke-width="2" stroke-linecap="round" stroke-linejoin="round"/>
<path d="M137.668 390.117C126.44 391.24 113.134 391.829 109.15 404.985C107.192 411.453 111.786 415.951 117.322 417.848C121.191 419.175 125.134 416.296 127.481 413.374" stroke="#00ADB5" stroke-opacity="0.5" stroke-width="2" stroke-linecap="round" stroke-linejoin="round"/>
<path d="M147.866 391.902C147.25 392.683 119.592 424.122 132.776 424.365C136.426 424.432 140.172 422.217 142.687 419.727" stroke="#00ADB5" stroke-opacity="0.5" stroke-width="2" stroke-linecap="round" stroke-linejoin="round"/>
<path d="M124.439 397.622C129.75 401.442 134.985 405.486 140.81 408.438C142.323 409.205 144.844 409.571 145.885 411.161C146.47 412.054 145.55 409.932 145.448 409.623" stroke="#00ADB5" stroke-opacity="0.5" stroke-width="2" stroke-linecap="round" stroke-linejoin="round"/>
<path d="M65.2064 145.904C69.6627 153.853 83.8147 177.042 78.0695 170.051C74.3972 165.582 71.6077 159.652 69.2793 154.365C66.8359 148.818 64.5416 138.919 73.8527 139.422C81.8441 139.853 85.0344 148.364 86.4402 155.341C87.0604 158.419 87.2186 160.81 88.5423 163.609C89.8958 166.472 89.9708 155.443 90.4853 152.582" stroke="#00ADB5" stroke-opacity="0.5" stroke-width="2" stroke-linecap="round" stroke-linejoin="round"/>
<path d="M93.9982 129.739C94.2467 130.942 98.0989 158.428 103.69 153.142C106.044 150.916 106.562 145.43 106.864 142.424C107.808 133.03 104.003 131.869 97.68 129.881C94.6633 128.933 94.0451 128.976 93.2167 132.215C91.5155 138.866 94.197 136.997 97.633 133.298" stroke="#00ADB5" stroke-opacity="0.5" stroke-width="2" stroke-linecap="round" stroke-linejoin="round"/>
<path d="M118.31 121.985C115.203 127.445 111.242 133.868 113.427 140.556C114.334 143.33 116.442 142.598 117.919 141.036C120.25 138.571 121.465 134.52 121.335 131.136C121.086 124.648 117.19 119.096 113.101 114.486C112.534 113.847 107.37 109.407 108.381 113.219C110.197 120.066 115.253 126.652 118.775 132.603C124.582 142.412 126.362 138.603 128.97 129.396" stroke="#00ADB5" stroke-opacity="0.5" stroke-width="2" stroke-linecap="round" stroke-linejoin="round"/>
<path d="M129.522 123.683C131.45 125.558 146.663 136.891 147.136 126.839C147.179 125.927 146.064 125.642 145.696 124.865C144.749 122.862 143.181 121.541 142.327 120.49" stroke="#00ADB5" stroke-opacity="0.5" stroke-width="2" stroke-linecap="round" stroke-linejoin="round"/>
<path d="M130.791 130.495C124.767 122.245 116.353 113.668 124.979 105.512C128.613 102.075 136.154 104.792 135.956 110.534C135.865 113.209 135.324 119.821 131.641 120.52C129.694 120.889 128.797 119.559 130.598 117.701" stroke="#00ADB5" stroke-opacity="0.5" stroke-width="2" stroke-linecap="round" stroke-linejoin="round"/>
<path d="M144.542 96.2791C148.436 98.8636 176.188 115.968 161.652 123.444C159.387 124.609 157.393 121.894 156.189 120.147C153.474 116.208 161.383 110.62 161.713 106.448" stroke="#00ADB5" stroke-opacity="0.5" stroke-width="2" stroke-linecap="round" stroke-linejoin="round"/>
<path d="M167.32 82.5287C165.053 84.4594 152.051 96.4513 162.275 98.77C167.923 100.051 173.261 94.1814 177.553 91.2518C184.467 86.5323 185.927 95.6139 184.027 100.74C182.863 103.879 173.15 114.152 175.808 105.985" stroke="#00ADB5" stroke-opacity="0.5" stroke-width="2" stroke-linecap="round" stroke-linejoin="round"/>
<path d="M244.059 528.875C235.409 533.415 224.075 541.694 233.426 552.678C237.912 557.948 246.192 555.789 252.099 555.18C253.759 555.009 258.338 556.674 257.092 555.518C254.395 553.019 252.455 553.18 251.645 548.959" stroke="#00ADB5" stroke-opacity="0.5" stroke-width="2" stroke-linecap="round" stroke-linejoin="round"/>
<path d="M269.735 525.832C269.735 532.482 269.676 537.243 276.219 539.83C279.044 540.947 280.818 541.972 281.568 545.274C282.416 549.006 279.919 554.411 276.964 556.499C273.311 559.08 268.723 559.98 264.613 558.223C261.093 556.719 264.984 554.94 266.817 553.219" stroke="#00ADB5" stroke-opacity="0.5" stroke-width="2" stroke-linecap="round" stroke-linejoin="round"/>
<path d="M298.328 518.529C297.18 523.167 292.007 535.57 296.61 540.371C298.468 542.309 302.067 541.233 304.358 541.791C306.638 542.347 308.594 544.167 309.999 546.051C312.223 549.034 310.106 553.555 307.535 555.654C303.547 558.909 297.849 557.479 293.206 557.479C290.671 557.479 292.403 557.293 293.66 555.654" stroke="#00ADB5" stroke-opacity="0.5" stroke-width="2" stroke-linecap="round" stroke-linejoin="round"/>
<path d="M288.268 460.811C292.764 459.022 301.102 456.175 305.45 452.967C310.04 449.581 305.235 448.608 302.792 449.417C298.654 450.788 296.155 455.308 294.752 459.29C291.06 469.773 302.806 481.623 312.68 480.422C321.805 479.311 323.077 474.652 324.448 467.506" stroke="#00ADB5" stroke-opacity="0.5" stroke-width="2" stroke-linecap="round" stroke-linejoin="round"/>
<path d="M330.283 455.334C329.261 457.07 319.549 477.925 316.862 468.115" stroke="#00ADB5" stroke-opacity="0.5" stroke-width="2" stroke-linecap="round" stroke-linejoin="round"/>
<path d="M312.194 455.942C316.291 461.655 326.19 482.079 336.119 481.504C337.558 481.42 335.649 475.639 335.535 474.809" stroke="#00ADB5" stroke-opacity="0.5" stroke-width="2" stroke-linecap="round" stroke-linejoin="round"/>
<path d="M339.036 455.943C341.299 469.772 345.834 511.569 343.251 497.801C341.919 490.702 329.757 452.285 340.463 453.88C345.106 454.572 356.957 461.637 353.852 468.115C352.105 471.757 341.283 473.029 346.039 470.549" stroke="#00ADB5" stroke-opacity="0.5" stroke-width="2" stroke-linecap="round" stroke-linejoin="round"/>
<path d="M361.211 465.68C362.653 473.505 364.041 481.323 365.296 489.179C365.511 490.524 365.222 489.415 364.842 488.672C362.455 484.004 359.187 475.685 359.298 470.448C359.404 465.486 365.95 462.102 369.381 465.68" stroke="#00ADB5" stroke-opacity="0.5" stroke-width="2" stroke-linecap="round" stroke-linejoin="round"/>
<path d="M379.884 474.809C379.733 480.537 383.717 500.588 393.176 494.758C394.531 493.923 397.875 491.881 397.974 490.024C398.027 489.034 396.299 488.807 395.64 488.807C393.906 488.807 393.473 486.564 392.722 485.156" stroke="#00ADB5" stroke-opacity="0.5" stroke-width="2" stroke-linecap="round" stroke-linejoin="round"/>
<path d="M376.967 476.635C382.078 471.121 387.826 463.523 392.366 473.355C393.694 476.234 393.232 479.702 392.139 482.586C390.373 487.244 384.049 489.081 385.72 482.112" stroke="#00ADB5" stroke-opacity="0.5" stroke-width="2" stroke-linecap="round" stroke-linejoin="round"/>
<path d="M408.478 465.68C412.477 472.345 428.652 490.313 418.041 498.511C414.646 501.134 412.43 501.122 408.607 500.979C403.21 500.778 406.062 499.351 407.894 494.893" stroke="#00ADB5" stroke-opacity="0.5" stroke-width="2" stroke-linecap="round" stroke-linejoin="round"/>
<path d="M432.986 463.246C431.778 464.77 416.175 480.503 425.66 482.18C429.156 482.798 432.369 480.59 435.58 482.822C441.373 486.851 440.001 492.311 434.672 495.738C432.009 497.451 429.037 498.349 426.243 499.762C424.664 500.56 426.347 498.247 426.567 497.327" stroke="#00ADB5" stroke-opacity="0.5" stroke-width="2" stroke-linecap="round" stroke-linejoin="round"/>
<path d="M419.565 456.551C418.21 457.589 403.621 466.033 405.69 471.158C408.3 477.623 409.162 469.664 409.645 466.897" stroke="#00ADB5" stroke-opacity="0.5" stroke-width="2" stroke-linecap="round" stroke-linejoin="round"/>
<path d="M60.9104 257.468C63.5093 251.076 62.4449 245.507 62.4449 238.883C62.4449 237.595 62.2207 233.67 63.5191 232.967C65.5666 231.859 67.48 231.12 69.8958 231.12C71.5019 231.12 73.1156 231.168 74.7209 231.12C76.3266 231.072 77.8819 230.391 79.4694 230.188C82.4231 229.811 85.4953 230.336 88.4121 230.336C90.7281 230.336 93.1239 230.65 95.3515 230.65C95.747 230.65 97.3594 230.846 97.6192 231.085C98.4143 231.817 98.1866 232.99 98.8127 233.629" stroke="#00ADB5" stroke-opacity="0.5" stroke-linecap="round" stroke-linejoin="round"/>
<path d="M98.6598 234.196C98.7609 236.082 98.7988 238.729 99.5429 240.572C100.025 241.766 99.6406 243.355 99.7382 244.627C99.9254 247.069 99.5768 249.449 99.5768 251.818C99.5768 254.996 99.7297 258.133 99.7297 261.293C99.7297 264.006 97.1884 263.552 95.1787 263.17C93.4425 262.841 91.1127 263.501 89.3031 263.525C85.8122 263.57 82.305 263.843 78.8087 263.843C75.8886 263.843 73.7203 262.959 71.0313 261.895C69.5953 261.327 68.7274 261.453 67.185 261.453C65.7242 261.453 64.5229 261.214 63.0585 261.692C62.2018 261.971 60.6675 261.73 60.1802 260.815C59.5959 259.718 60.7576 259.242 60.7576 258.344C60.7576 257.59 60.6667 255.434 60.9104 257.468" stroke="#00ADB5" stroke-opacity="0.5" stroke-linecap="round" stroke-linejoin="round"/>
<path d="M78.3333 238.34C78.3333 238.34 78.9447 238.659 79.556 239.297C80.1673 239.775 81.4541 239.536 82.5362 239.536C83.1056 239.536 83.7068 239.073 84.2174 238.836C85.2516 238.357 84.6347 239.258 84.3872 239.775C84.1131 240.346 84.4261 241.409 84.9221 241.767C85.7404 242.358 86.55 241.848 87.3504 241.431C87.6827 241.257 87.5915 241.177 87.6943 241.413C87.8337 241.733 87.8089 242.197 87.8089 242.546C87.8089 243.341 87.7589 244.661 87.3504 245.354C86.8131 246.264 86.2701 246.854 85.406 247.523C84.5524 248.184 83.4246 249.338 82.29 249.338C80.0727 249.338 77.7193 248.835 76.6097 246.584C76.1394 245.631 75.2767 244.85 75.2767 243.76C75.2767 242.85 74.9881 241.76 75.2767 240.89C75.6265 239.836 76.4994 238.836 76.1937 238.836C76.3495 238.883 77.722 238.021 78.3333 238.34Z" stroke="#00ADB5" stroke-opacity="0.5" stroke-linecap="round" stroke-linejoin="round"/>
<path d="M80.855 237.782C81.7149 237.45 83.6787 236.755 84.1409 235.67C84.4982 234.832 83.3174 234.674 82.689 234.674C81.9269 234.674 81.0238 235.773 80.8211 236.467C80.7083 236.854 80.6012 237.249 80.4899 237.641C80.4363 237.829 80.5079 237.966 80.5451 238.141C80.5735 238.274 81.7394 237.635 81.6956 237.453" stroke="#00ADB5" stroke-opacity="0.5" stroke-linecap="round" stroke-linejoin="round"/>
<path d="M96.9545 255.695L61.8824 256.499C58.6231 256.574 56.0198 259.237 56.0198 262.497V264.219C56.0198 267.533 58.7061 270.219 62.0198 270.219H97.0919C100.406 270.219 103.092 267.533 103.092 264.219V261.694C103.092 258.326 100.321 255.618 96.9545 255.695Z" stroke="#00ADB5" stroke-opacity="0.5"/>
<path d="M69.8719 256.293C70.3795 257.114 70.8177 258.099 71.4002 258.858C71.6931 259.24 71.6461 259.163 72.214 258.943C73.162 258.577 74.2361 258.839 75.2252 258.839C76.0935 258.839 77.1031 258.367 77.947 258.604C78.9247 258.878 80.0773 258.354 81.0396 258.33C82.1991 258.301 83.3045 258.415 84.4577 258.415C85.153 258.415 85.8307 257.991 86.4742 257.991C86.8475 257.991 87.9117 258.299 87.9391 257.585C87.9525 257.237 88.1019 256.899 88.1019 256.548C88.1019 256.072 87.8289 256.278 87.3694 256.038" stroke="#00ADB5" stroke-opacity="0.5" stroke-linecap="round" stroke-linejoin="round"/>
<path d="M235.437 82.0572C236.065 81.2251 237.267 79.6853 235.582 79.4131C235.201 79.3515 234.845 79.1179 234.471 79.2947C233.319 79.8391 232.249 81.0379 232.249 82.4631C232.249 84.7396 234.643 85.2325 236.382 85.203C239.315 85.1533 240.208 82.172 241.244 79.757C242.291 77.3175 243.454 74.9175 244.54 72.4955C245.769 69.755 247.784 67.5718 249.059 64.8564C249.606 63.6919 250.32 62.6665 251.024 61.6034C252.116 59.9541 252.894 58.2903 253.675 56.4617C254.316 54.9614 255.026 53.5914 255.811 52.1714C256.129 51.5971 256.009 50.7174 256.616 51.3314C257.077 51.7975 257.81 52.1037 258.431 52.2221C261.142 52.74 263.636 53.2881 266.428 53.0565C269.252 52.8223 272.075 52.4003 274.855 51.8388C275.8 51.6478 275.397 51.8777 274.951 52.4758C274.195 53.4904 273.55 54.5655 272.826 55.5935C271.881 56.9341 271.549 58.5486 270.99 60.0812C270.376 61.7659 269.645 63.3751 269.058 65.0875C267.924 68.3969 266.269 71.4149 264.222 74.1925C263.035 75.8022 261.57 78.6136 259.348 78.4997C255.91 78.3236 258.232 71.2654 259.874 69.8852C260.759 69.1423 261.726 69.9421 261.833 70.9395C261.982 72.3099 261.531 74.1879 260.255 74.8577C258.91 75.5645 257.878 75.4797 258.914 73.6569C259.54 72.554 259.913 73.7678 260.17 73.2284" stroke="#00ADB5" stroke-opacity="0.5" stroke-width="2" stroke-linecap="round" stroke-linejoin="round"/>
<path d="M494.529 327.932C495.156 327.1 496.358 325.561 494.673 325.288C494.292 325.227 493.936 324.993 493.562 325.17C492.411 325.714 491.34 326.913 491.34 328.338C491.34 330.615 493.734 331.108 495.473 331.078C498.407 331.029 499.3 328.047 500.336 325.632C501.383 323.193 502.545 320.793 503.632 318.371C504.86 315.63 506.876 313.447 508.151 310.732C508.698 309.567 509.411 308.542 510.115 307.479C511.207 305.829 511.986 304.166 512.767 302.337C513.408 300.837 514.118 299.467 514.903 298.047C515.22 297.472 515.101 296.593 515.708 297.207C516.169 297.673 516.902 297.979 517.522 298.097C520.234 298.615 522.727 299.163 525.52 298.932C528.344 298.698 531.166 298.276 533.946 297.714C534.891 297.523 534.489 297.753 534.043 298.351C533.287 299.366 532.642 300.441 531.917 301.469C530.973 302.809 530.641 304.424 530.082 305.956C529.468 307.641 528.736 309.25 528.15 310.963C527.015 314.272 525.361 317.29 523.314 320.068C522.127 321.677 520.662 324.489 518.44 324.375C515.002 324.199 517.324 317.141 518.966 315.76C519.85 315.017 520.817 315.817 520.925 316.815C521.073 318.185 520.623 320.063 519.347 320.733C518.001 321.44 516.97 321.355 518.005 319.532C518.632 318.429 519.004 319.643 519.261 319.104" stroke="#00ADB5" stroke-opacity="0.5" stroke-width="2" stroke-linecap="round" stroke-linejoin="round"/>
<path d="M466.825 184.513C463.949 179.076 464.119 177.523 464.775 172.05C465.136 169.036 465.274 166.092 466.005 163.127C467.312 157.824 467.737 150.685 463.643 146.415C455.589 138.015 440.59 149.962 445.131 160.619C446.86 164.675 449.846 167.678 452.004 171.504C452.87 173.039 453.354 174.702 454.479 176.136C455.558 177.511 456.897 179.222 456.897 180.929C456.897 182.372 456.485 184.241 457.463 185.516C458.814 187.278 458.334 186.372 460.334 186.372C461.709 186.372 463.736 185.232 464.845 184.307C465.637 183.646 466.062 185.557 466.062 183.717C466.062 182.138 465.574 183.452 466.571 183.452" stroke="#00ADB5" stroke-opacity="0.5" stroke-linecap="round" stroke-linejoin="round"/>
<path d="M460.461 189.558C463.183 188.711 470.718 186.821 468.974 189.16C466.87 191.981 465.97 190.567 463.388 191.166C462.068 191.472 460.78 195.722 462.243 195.812C464.331 195.94 465.716 193.009 467.843 193.009C469.779 193.009 469.64 195.666 468.479 196.608C466.946 197.852 465.184 196.515 464.152 198.452C462.522 201.513 466.975 201.015 468.239 200.295C469.512 199.571 470.724 198.44 471.661 197.788" stroke="#00ADB5" stroke-opacity="0.5" stroke-linecap="round" stroke-linejoin="round"/>
<path d="M466.825 183.651C466.791 183.882 466.755 185.443 466.157 185.443C465.835 185.443 465.687 185.239 465.393 185.409C465.048 185.61 464.723 186.081 464.393 186.357C464.101 186.6 463.237 186.57 463.07 186.873C462.799 187.369 462.248 187.64 461.734 187.699C461.067 187.777 460.821 188.126 460.111 187.961C459.894 187.911 459.872 187.766 459.669 187.766C459.356 187.766 459.22 187.922 458.983 187.648C458.721 187.344 458.293 187.202 458.167 186.741C457.995 186.114 457.365 185.784 458.298 186.173" stroke="#00ADB5" stroke-opacity="0.5" stroke-linecap="round" stroke-linejoin="round"/>
<path d="M454.543 157.367C455.681 157.373 456.623 157.45 457.011 158.709C457.275 159.566 457.279 160.408 457.279 161.298C457.279 162.163 456.77 162.858 456.77 163.672C456.77 164.749 457.595 164.573 458.294 164.9C458.954 165.21 459.432 165.469 459.79 166.161C460.144 166.847 459.876 168.174 459.828 168.92C459.787 169.561 459.495 170.925 459.92 171.468C460.152 171.762 461.415 172.217 460.589 171.571" stroke="#00ADB5" stroke-opacity="0.5" stroke-linecap="round" stroke-linejoin="round"/>
<path d="M444.933 169.38C444.021 170.012 443.092 170.542 442.073 170.94C441.645 171.107 441.083 171.406 441.178 170.708" stroke="#00ADB5" stroke-opacity="0.5" stroke-linecap="round" stroke-linejoin="round"/>
<path d="M441.624 160.221C440.008 160.627 438.403 161.084 436.802 161.534C436.535 161.609 437.147 160.906 437.169 160.885" stroke="#00ADB5" stroke-opacity="0.5" stroke-linecap="round" stroke-linejoin="round"/>
<path d="M441.178 151.526C439.505 151.273 437.837 150.958 436.172 150.649C435.406 150.506 435.081 150.611 435.515 149.933" stroke="#00ADB5" stroke-opacity="0.5" stroke-linecap="round" stroke-linejoin="round"/>
<path d="M450.215 142.3C448.893 142.058 447.747 141.825 446.552 141.202C445.993 140.91 445.455 140.559 444.869 140.324C444.174 140.044 444.16 140.129 444.933 139.645" stroke="#00ADB5" stroke-opacity="0.5" stroke-linecap="round" stroke-linejoin="round"/>
<path d="M461.734 136.327C461.927 137.736 461.864 138.579 461.317 139.856C461.023 140.544 460.773 141.413 460.628 142.157C460.578 142.412 460.55 142.558 460.384 142.75C460.322 142.822 460.549 141.967 460.589 141.836" stroke="#00ADB5" stroke-opacity="0.5" stroke-linecap="round" stroke-linejoin="round"/>
<path d="M471.471 141.968C471.048 143.435 470.446 144.843 470.085 146.312C469.902 147.056 470.016 147.101 470.325 146.349" stroke="#00ADB5" stroke-opacity="0.5" stroke-linecap="round" stroke-linejoin="round"/>
<path d="M475.544 152.522C474.098 153.827 472.912 155.447 471.789 157.05C471.648 157.251 471.486 157.322 471.329 157.485C470.975 157.855 471.587 157.019 471.662 156.902" stroke="#00ADB5" stroke-opacity="0.5" stroke-linecap="round" stroke-linejoin="round"/>
<path d="M151.507 285.66C153.623 295.601 156.006 305.564 157.405 315.655C158.187 321.292 156.47 313.157 156.257 312.007C155.795 309.518 155.265 307.313 155.265 304.767C155.265 299.644 155.134 294.463 154.769 289.334C154.514 285.744 150.286 275.053 155.631 283.972C161.08 293.067 164.928 303.121 168.627 313.042C169.137 314.409 169.843 315.704 170.402 317.016C170.707 317.732 164.987 311.901 162.781 310.646" stroke="#00ADB5" stroke-opacity="0.5" stroke-width="2" stroke-linecap="round" stroke-linejoin="round"/>
<path d="M148.219 307.707C154.326 305.165 167.792 300.371 171.707 293.227C173.347 290.234 173.027 291.618 168.418 292.519" stroke="#00ADB5" stroke-opacity="0.5" stroke-width="2" stroke-linecap="round" stroke-linejoin="round"/>
<path d="M166.54 274.391C171.253 284.122 174.666 294.483 175.961 305.284C176.081 306.285 176.304 307.384 176.979 308.088C177.104 308.219 174.718 303.561 174.056 302.318" stroke="#00ADB5" stroke-opacity="0.5" stroke-width="2" stroke-linecap="round" stroke-linejoin="round"/>
<path d="M166.54 273.901C170.194 276.185 183.618 284.618 174.865 289.988C174.096 290.459 173.196 290.894 172.646 291.648C171.483 293.244 171.343 293.713 172.177 291.539" stroke="#00ADB5" stroke-opacity="0.5" stroke-width="2" stroke-linecap="round" stroke-linejoin="round"/>
<path d="M178.753 269.002C180.31 280.002 182.981 292.089 182.981 303.297C182.981 305.772 182.584 301.189 182.041 299.868" stroke="#00ADB5" stroke-opacity="0.5" stroke-width="2" stroke-linecap="round" stroke-linejoin="round"/>
<path d="M189.557 288.599C192.136 296.618 193.463 301.343 185.904 303.678C183.321 304.477 186.442 300.564 187.104 300.086C189.365 298.453 191.617 293.197 189.088 290.559C188.081 289.51 185.673 290.835 184.964 289.579C183.92 287.728 186.26 284.223 187.678 283.319C191.757 280.719 191.244 284.383 189.557 283.21" stroke="#00ADB5" stroke-opacity="0.5" stroke-width="2" stroke-linecap="round" stroke-linejoin="round"/>
<path d="M330.668 139.814C332.225 148.359 338.636 173.311 334.906 165.531C334.505 164.693 334.17 163.982 334.136 163.031C334.011 159.512 333.759 155.834 332.595 152.494C331.621 149.701 331.824 146.805 331.824 143.833C331.824 143.237 330.854 138.552 330.947 138.519C331.927 138.179 335.973 143.306 336.704 144.19C340.403 148.66 344.142 153.797 346.786 159.035C348.146 161.731 348.556 162.697 345.309 163.12" stroke="#00ADB5" stroke-opacity="0.5" stroke-width="2" stroke-linecap="round" stroke-linejoin="round"/>
<path d="M330.283 157.093C333.899 155.18 337.343 153.651 341.071 152.271" stroke="#00ADB5" stroke-opacity="0.5" stroke-width="2" stroke-linecap="round" stroke-linejoin="round"/>
<path d="M340.686 140.216C344.388 146 347.914 152.154 352.223 157.495C352.837 158.256 354.128 159.64 354.128 157.852C354.128 155.412 352.832 152.891 352.244 150.574C351.304 146.869 350.429 143.147 349.633 139.412C348.865 135.807 349.406 137.153 350.703 139.859C352.853 144.343 355.115 148.427 358.109 152.405C360.126 155.085 360.335 153.592 360.335 151.244C360.335 146.978 358.338 143.47 356.868 139.636C355.297 135.54 355.402 129.949 353.614 126.219C352.919 124.769 352.822 129.365 352.63 130.974" stroke="#00ADB5" stroke-opacity="0.5" stroke-width="2" stroke-linecap="round" stroke-linejoin="round"/>
<path d="M361.491 125.75C361.589 126.222 363.024 137.921 365.558 136.6C366.668 136.021 366.94 134.249 368.083 133.653C369.936 132.687 371.938 134.398 372.664 136.064C374.584 140.47 372.374 145.572 368.897 148.253C364.08 151.966 365.729 145.281 365.729 143.431" stroke="#00ADB5" stroke-opacity="0.5" stroke-width="2" stroke-linecap="round" stroke-linejoin="round"/>
<path d="M363.803 124.947C363.109 126.923 361.849 136.097 361.469 132.537C361.235 130.339 361.651 128.668 361.876 126.554C362.41 121.54 366.089 125.573 364.573 122.938" stroke="#00ADB5" stroke-opacity="0.5" stroke-width="2" stroke-linecap="round" stroke-linejoin="round"/>
<path d="M338.108 388.88C337.98 388.634 332.422 378.651 332.903 378.364C333.57 377.966 334.815 378.353 335.599 378.046C337.919 377.139 339.787 375.266 341.696 373.718C343.704 372.089 346.454 384.868 347.066 387.559C347.805 390.815 349.731 395.144 346.128 397.023C342.88 398.717 338.606 398.206 335.06 398.124C329.275 397.99 325.277 388.086 324.602 383.157C324.111 379.568 319.346 368.049 324.462 365.745C325.831 365.128 328.158 365.549 329.644 365.549C331.77 365.549 333.625 364.229 335.787 364.229C339.227 364.229 340.267 368.71 337.264 363.789" stroke="#00ADB5" stroke-opacity="0.5" stroke-width="2" stroke-linecap="round" stroke-linejoin="round"/>
<path d="M347.816 367.31C348.416 369.589 350.344 382.24 355.413 379C356.378 378.383 357.08 376.888 357.43 375.821C358.363 372.972 358.56 370.592 356.468 368.411C354.901 366.776 351.875 363.44 349.598 363.349C343.952 363.122 348.933 369.718 348.238 368.631" stroke="#00ADB5" stroke-opacity="0.5" stroke-width="2" stroke-linecap="round" stroke-linejoin="round"/>
<path d="M348.66 347.061C352.829 353.936 359.12 361.496 361.65 369.413C361.973 370.423 361.984 371.11 362.588 372.055C363.499 373.48 363.93 375.549 364.792 373.375C366.041 370.228 368.886 367.434 371.123 365.011C373.883 362.022 374.261 362.908 369.341 362.908" stroke="#00ADB5" stroke-opacity="0.5" stroke-width="2" stroke-linecap="round" stroke-linejoin="round"/>
<path d="M377.783 344.86C377.259 346.094 369.308 362.505 376.985 358.775C378.513 358.033 380.071 356.879 379.87 354.985C379.675 353.159 378.213 351.724 377.454 350.143C377.026 349.249 375.314 344.944 375.907 346.181C377.67 349.858 380.037 356.407 382.66 359.142C385.715 362.329 387.546 358.98 384.536 357.186" stroke="#00ADB5" stroke-opacity="0.5" stroke-width="2" stroke-linecap="round" stroke-linejoin="round"/>
<path d="M382.425 346.621C394.174 366.057 379.308 344.249 382.73 340.434C386.042 336.742 389.955 343.832 391.195 346.083C393.355 350.004 395.481 360.177 392.133 349.702" stroke="#00ADB5" stroke-opacity="0.5" stroke-width="2" stroke-linecap="round" stroke-linejoin="round"/>
<path d="M397.198 329.894C396.998 330.628 390.697 349.122 395.416 347.404C397.421 346.673 399.434 345.02 400.504 343.124C401.738 340.935 402.313 337.934 401.418 335.518C400.809 333.872 400.149 332.113 399.308 330.578C397.311 326.933 402.694 338.199 404.303 342.048C406.658 347.684 412.334 367.444 398.956 363.52C393.121 361.808 398.617 352.344 398.042 352.344" stroke="#00ADB5" stroke-opacity="0.5" stroke-width="2" stroke-linecap="round" stroke-linejoin="round"/>
<path d="M231.081 238.945C233.179 238.343 234.967 237.738 236.442 236.007C237.023 235.325 237.102 234.454 237.4 233.627C237.786 232.553 237.305 231.18 236.976 230.15C236.712 229.325 238.152 228.863 238.666 228.828C239.549 228.769 240.225 229.355 241.074 229.407C242.094 229.47 243.183 229.81 243.89 230.641C244.371 231.204 245.014 231.337 245.544 231.826C246.048 232.289 246.447 233.099 246.811 233.693C247.866 235.411 248.164 237.416 248.471 239.381C248.618 240.324 248.707 241.35 248.554 242.302C248.373 243.439 248.566 244.532 248.136 245.621C247.838 246.375 247.362 247.372 246.686 247.816C245.991 248.272 245.345 248.437 245.168 249.383C244.797 251.36 245.748 253.296 245.382 255.29C245.057 257.061 242.812 257.332 241.425 257.616C240.467 257.811 238.726 258.117 237.803 257.594C236.083 256.619 234.838 255.4 233.563 253.849C232.433 252.474 232.005 250.464 231.856 248.706C231.704 246.912 231.702 244.963 231.741 243.148C231.767 241.944 232.102 240.735 232.212 239.534C232.302 238.552 232.6 238.473 232.118 239.731" stroke="#00ADB5" stroke-opacity="0.5" stroke-linecap="round" stroke-linejoin="round"/>
<path d="M243.236 230.002C243.945 228.096 244.724 226.192 245.267 224.226C245.511 223.343 245.57 222.408 245.874 221.546C246.228 220.544 246.403 219.411 246.555 218.363C246.664 217.611 246.717 216.281 247.377 215.808C247.858 215.462 248.133 214.672 248.649 214.257C249.311 213.724 250.252 213.228 250.721 212.516C251.183 211.816 251.675 210.371 251.287 209.562C251.072 209.113 251.101 208.629 250.889 208.186C250.613 207.611 250.365 207.144 250.156 206.521C249.973 205.976 249.399 204.889 250.067 204.501C251.703 203.554 251.816 205.045 252.323 206.407C252.585 207.11 252.625 207.969 252.868 208.7C253.034 209.2 253.328 208.838 253.553 209.125C253.893 209.558 253.91 210.099 254.166 210.567C254.549 211.267 254.099 212.687 253.904 213.373C253.544 214.642 253.172 215.79 252.637 217.009C251.26 220.147 249.015 222.79 247.476 225.831C246.89 226.989 246.421 228.155 246.136 229.434C245.974 230.162 245.497 230.855 245.497 231.624C245.497 232.325 245.331 232.685 245.686 231.574" stroke="#00ADB5" stroke-opacity="0.5" stroke-linecap="round" stroke-linejoin="round"/>
<path d="M250.585 206.319C249.386 206.511 248.077 206.585 247.005 207.144C246.858 207.221 247.087 207.02 247.193 207.007C248.63 206.831 250.199 205.495 251.507 204.845C252.48 204.362 253.81 203.273 254.92 203.273C255.241 203.273 253.852 204.206 253.695 204.354" stroke="#00ADB5" stroke-opacity="0.5" stroke-linecap="round" stroke-linejoin="round"/>
<path d="M249.361 208.481C250.696 207.672 253.021 206.794 253.998 205.435C254.093 205.303 254.163 205.124 254.302 205.042C254.787 204.753 253.93 205.075 253.789 205.14" stroke="#00ADB5" stroke-opacity="0.5" stroke-linecap="round" stroke-linejoin="round"/>
<path d="M250.303 209.759C251.905 209.119 254.834 208.55 255.715 206.712C255.842 206.447 255.56 206.516 255.391 206.516" stroke="#00ADB5" stroke-opacity="0.5" stroke-linecap="round" stroke-linejoin="round"/>
<path d="M251.999 209.562C251.897 211.816 251.918 214.107 250.685 216.037C250.083 216.978 249.666 217.604 249.455 218.707C249.229 219.885 248.981 220.868 248.465 221.944C247.957 223.005 247.36 223.873 246.858 224.892C246.599 225.42 245.959 225.929 246.084 226.563C246.147 226.883 245.994 227.17 245.895 227.469C245.601 228.356 245.05 229.138 244.534 229.904C244.184 230.424 244.188 231.357 244.649 230.395" stroke="#00ADB5" stroke-opacity="0.5" stroke-linecap="round" stroke-linejoin="round"/>
<path d="M244.367 227.742C245.217 227.934 246.51 228.528 247.382 228.528C247.398 228.528 246.641 227.575 246.534 227.447" stroke="#00ADB5" stroke-opacity="0.5" stroke-linecap="round" stroke-linejoin="round"/>
<path d="M244.932 223.713C246.135 224.248 247.339 224.779 248.533 225.334C248.813 225.464 248.797 225.484 248.701 225.383C248.494 225.168 248.318 224.934 248.136 224.696" stroke="#00ADB5" stroke-opacity="0.5" stroke-linecap="round" stroke-linejoin="round"/>
<path d="M246.063 221.06C247.511 221.529 248.958 222.035 250.423 222.446C250.588 222.493 250.817 222.584 250.659 222.414C250.343 222.073 249.979 221.772 249.643 221.453" stroke="#00ADB5" stroke-opacity="0.5" stroke-linecap="round" stroke-linejoin="round"/>
<path d="M246.817 217.719C248.466 218.559 250.108 219.466 251.8 220.213C252.078 220.336 252.171 220.427 252.114 220.197C252.036 219.885 251.921 219.591 251.81 219.291" stroke="#00ADB5" stroke-opacity="0.5" stroke-linecap="round" stroke-linejoin="round"/>
<path d="M248.889 215.36C249.039 215.435 253.601 218.016 253.223 217.031" stroke="#00ADB5" stroke-opacity="0.5" stroke-linecap="round" stroke-linejoin="round"/>
<path d="M249.831 213.788C251.208 214.125 252.6 214.433 253.977 214.672" stroke="#00ADB5" stroke-opacity="0.5" stroke-linecap="round" stroke-linejoin="round"/>
<path d="M251.339 212.216C251.967 212.247 252.596 212.279 253.224 212.314" stroke="#00ADB5" stroke-opacity="0.5" stroke-linecap="round" stroke-linejoin="round"/>
<path d="M238.902 241.696C238.247 241.967 234.215 243.013 234.191 244.175C234.182 244.629 234.191 245.083 234.243 245.534C234.405 246.934 235.339 247.666 236.484 248.335C237.938 249.184 239.504 249.211 241.09 248.728C242.597 248.268 243.577 246.53 242.974 245.037C242.849 244.727 243.282 244.665 243.001 244.306C242.727 243.956 242.546 244.159 242.106 244.251" stroke="#00ADB5" stroke-opacity="0.5" stroke-linecap="round" stroke-linejoin="round"/>
<path d="M236.923 245.332C237.673 243.354 238.608 241.378 239.043 239.289C239.157 238.742 239.298 238.282 239.582 237.787C240.183 236.743 240.712 235.628 241.069 234.468C241.408 233.367 241.429 232.28 241.875 231.203C242.034 230.819 242.984 229.667 242.577 230.199" stroke="#00ADB5" stroke-opacity="0.5" stroke-linecap="round" stroke-linejoin="round"/>
<path d="M244.367 231.181C244.017 233.458 243.492 235.636 243.121 237.885C242.915 239.133 242.577 240.175 242.577 241.489C242.577 242.428 242.898 243.211 242.692 244.153C242.454 245.237 242.24 244.703 241.823 243.956" stroke="#00ADB5" stroke-opacity="0.5" stroke-linecap="round" stroke-linejoin="round"/>
<path d="M243.425 231.181C242.769 232.603 241.352 234.939 241.352 236.734C241.352 237.754 241.415 238.837 241.346 239.873C241.265 241.104 240.343 242.7 239.792 243.76C239.609 244.112 239.37 244.383 239.258 244.764C239.117 245.241 239.217 245.269 238.902 244.742" stroke="#00ADB5" stroke-opacity="0.5" stroke-linecap="round" stroke-linejoin="round"/>
<path d="M236.641 243.268C238.245 244.466 241.078 246.909 243.048 244.797C243.355 244.468 243.799 243.765 243.969 243.345C244.202 242.771 243.448 243.258 242.953 243.367" stroke="#00ADB5" stroke-opacity="0.5" stroke-linecap="round" stroke-linejoin="round"/>
<path d="M238.525 241.5C239.44 241.469 241.29 241.727 242.179 241.248C242.208 241.233 242.11 241.26 242.085 241.281C241.997 241.354 241.815 241.235 241.729 241.205" stroke="#00ADB5" stroke-opacity="0.5" stroke-linecap="round" stroke-linejoin="round"/>
<path d="M239.561 237.864C240.233 238.049 242.663 239.128 242.765 237.962" stroke="#00ADB5" stroke-opacity="0.5" stroke-linecap="round" stroke-linejoin="round"/>
<path d="M240.692 234.916C241.524 235.483 244.903 238.107 244.367 235.309" stroke="#00ADB5" stroke-opacity="0.5" stroke-linecap="round" stroke-linejoin="round"/>
<path d="M241.634 233.54C242.482 233.769 243.33 233.998 244.178 234.228" stroke="#00ADB5" stroke-opacity="0.5" stroke-linecap="round" stroke-linejoin="round"/>
<path d="M245.78 233.54C246.828 234.57 248.922 236.967 248.984 238.77C249.034 240.24 248.984 241.662 248.984 243.148C248.984 244.23 249.182 245.384 249.078 246.413C248.942 247.763 246.954 247.78 247.429 249.367C247.588 249.896 247.449 250.209 247.895 250.589C248.279 250.917 248.559 251.298 248.701 251.818C249.033 253.032 248.371 254.128 247.57 254.962C247.069 255.485 246.419 256.536 245.827 256.879C245.535 257.048 244.937 256.928 244.602 256.928C244.292 256.928 243.664 257.138 243.383 257.272C242.969 257.468 242.442 257.122 241.917 257.321" stroke="#00ADB5" stroke-opacity="0.5" stroke-linecap="round" stroke-linejoin="round"/>
<path d="M231.081 239.239C231.461 240.555 231.744 241.65 232.38 242.777C232.641 243.24 232.605 243.661 232.49 244.202C232.355 244.831 231.915 246.307 232.259 246.954C232.788 247.947 232.777 248.998 232.777 250.098C232.777 251.158 234.366 251.619 234.887 252.162C235.661 252.969 235.325 253.999 236.599 254.351C236.877 254.428 237.312 254.433 237.53 254.619C237.696 254.76 237.889 255.112 238.106 255.154C238.555 255.239 239.156 255.146 239.561 255.334C239.9 255.491 240.147 255.717 240.457 255.896C240.797 256.093 241.263 255.872 241.634 256.065C242.901 256.726 242.335 256.098 241.446 255.356" stroke="#00ADB5" stroke-opacity="0.5" stroke-linecap="round" stroke-linejoin="round"/>
<path d="M137.316 189.884C134.798 193.243 123.987 206.689 133.199 209.731C136.057 210.675 139.778 208.505 142.859 208.818C147.216 209.261 149.665 213.124 150.737 217.136C151.971 221.755 145.161 229.969 148.435 232.452C154.043 236.705 162.118 229.513 166.752 235.225C169.378 238.462 166.616 243.165 168.243 235.529" stroke="#00ADB5" stroke-opacity="0.5" stroke-linecap="round" stroke-linejoin="round"/>
<path d="M263.76 137.544C266.187 140.897 271.962 148.452 274.134 152.759C275.983 156.425 273.653 156.278 271.67 154.822C269.299 153.08 269.632 149.374 270.309 146.808C272.593 138.145 287.377 130.181 289.047 143.495C289.633 148.171 285.625 156.035 280.164 154.179C272.955 151.729 273.414 140.254 278.867 135.989C284.445 131.626 293.585 136.639 293.585 143.765C293.585 151.677 284.569 154.127 281.072 147.146C277.893 140.802 283.526 134.166 289.565 133.216C291.787 132.867 297.525 135.543 293.521 136.935" stroke="#00ADB5" stroke-opacity="0.5" stroke-linecap="round" stroke-linejoin="round"/>
<path d="M385.719 197.796C381.941 201.711 369.999 210.842 380.046 214.397C385.892 216.466 391.304 213.074 394.926 208.446C398.923 203.339 399.601 195.263 393.24 191.946C388.293 189.367 384.03 185.223 379.884 191.71" stroke="#00ADB5" stroke-opacity="0.5" stroke-linecap="round" stroke-linejoin="round"/>
<path d="M514.682 251.353C507.466 255.835 496.51 261.25 507.679 265.486C509.396 266.137 510.514 265.713 512.024 264.607C517.607 260.515 517.935 258.876 517.6 252.57C517.377 248.394 511.523 249.348 508.846 250.744C504.899 252.802 502.146 256.922 500.547 261.09C498.396 266.699 509.517 266.356 511.051 259.602C512.012 255.369 507.369 249.354 504.178 254.531C499.951 261.389 506.401 267.523 510.467 260.346C514.362 253.473 505.263 250.638 502.817 258.656C499.601 269.197 518.718 257.751 511.764 254.125C507.619 251.964 500.62 265.69 508.263 262.274C517.543 258.126 507.161 252.013 507.161 261.699C507.161 269.559 519.626 258.152 511.505 255.072C509.648 254.368 507.815 260.556 509.138 261.935C511.439 264.335 515.437 258.121 515.233 255.883C514.356 246.279 505.341 270.697 516.076 259.501C518.528 256.944 518.427 252.321 514.358 255.038C511.956 256.641 510.436 263.445 514.974 261.868C519.331 260.353 519.33 251.936 514.649 253.888C511.793 255.08 510.758 259.298 507.679 258.656" stroke="#00ADB5" stroke-opacity="0.5" stroke-linecap="round" stroke-linejoin="round"/>
<path d="M451.659 314.039C450.455 315.425 431.227 340.168 440.896 327.563C443.107 324.68 445.139 321.844 448.158 319.82C450.019 318.573 451.811 317.802 453.41 316.135C455.157 314.313 452.68 314.432 452.275 318.231C451.923 321.539 452.193 335.981 451.659 335.948C448.055 335.727 445.692 332.027 442.355 330.809C440.568 330.156 435.268 331.096 436.747 329.862C440.361 326.847 451.431 318.199 448.158 321.612C445.679 324.198 440.583 333.917 442.323 330.741C443.56 328.483 446.906 321.126 446.408 322.356C445.382 324.891 443.596 329.232 443.749 332.026C443.894 334.678 448.946 328.152 449.26 327.495C451.602 322.612 446.757 333.595 448.482 330.978C450.036 328.621 455.289 322.629 451.53 328.51C450.707 329.797 455.424 323.859 454.577 325.129C454.331 325.497 452.193 329.238 453.442 327.935C457.916 323.269 451.324 328.121 450.492 326.819" stroke="#00ADB5" stroke-opacity="0.5" stroke-linecap="round" stroke-linejoin="round"/>
<path d="M412.562 415.067C414.605 412.032 426.278 398.648 416.68 398.059C415.058 397.96 411.712 397.411 410.358 398.567C407.137 401.315 408.533 408.73 412.887 409.555C418.659 410.65 424.069 402.417 417.814 399.243C411.279 395.927 395.853 409.245 402.513 414.728C415.624 425.524 427.48 394.152 410.52 398.668C395.136 402.764 408.689 419.291 415.675 408.642C423.154 397.242 400.091 397.144 404.166 409.893C406.176 416.182 412.772 413.147 413.956 408.068C415.693 400.621 408.592 403.696 408.478 408.845C408.355 414.364 416.507 404.379 411.622 404.822C408.092 405.142 407.744 410.198 404.976 410.198" stroke="#00ADB5" stroke-opacity="0.5" stroke-linecap="round" stroke-linejoin="round"/>
<path d="M180.314 357.858C181.492 363.434 183.815 380.305 183.815 374.594C183.815 370.652 180.928 366.974 180.346 363.031C180.143 361.653 180.562 357.578 179.438 356.641C178.67 355.999 185.936 361.898 187.867 363.031C191.391 365.098 193.917 368.96 196.977 364.857C198.446 362.887 202.768 362.615 203.363 362.118C207.684 358.513 207.288 353.133 208.291 348.425C208.649 346.746 207.74 354.158 207.74 356.336C207.74 359.124 208.222 362.814 208.939 365.432C209.958 369.149 209.55 358.658 208.583 356.641C207.012 353.363 207.156 350.454 207.156 346.903C207.156 345.501 216.911 363.076 215.196 364.417C214.48 364.978 204.927 362.23 202.034 363.2C199.542 364.035 197.266 365.011 194.902 366.243C194.256 366.58 193.19 367.807 193.605 367.46C195.087 366.224 199.62 362.845 197.82 363.471C195.347 364.33 192.919 366.825 190.688 368.204C186.482 370.803 185.121 370.44 183.361 374.899C183.107 375.541 186.247 375.459 186.862 375.643C191.279 376.959 194.054 373.371 197.949 371.721C202.978 369.59 208.759 365.215 214.159 364.553C218.235 364.052 212.037 362.562 211.825 362.118" stroke="#00ADB5" stroke-opacity="0.5" stroke-linecap="round" stroke-linejoin="round"/>
<path d="M403.226 123.546C414.223 119.869 432.035 115.641 441.869 107.249C443.653 105.727 446.417 104.267 445.792 101.332C443.442 90.3075 438.331 87.7219 428.253 88.8897C422.663 89.5375 417.298 94.9153 412.108 97.1059C406.766 99.3611 401.421 102.324 396.547 105.559C391.615 108.832 394.472 110.454 394.472 116.108C394.472 119.217 396.253 123.546 399.433 123.546C400.882 123.546 405.036 122.329 400.924 122.329C397.697 122.329 392.688 122.839 389.804 121.247C387.602 120.031 391.949 117.638 392.981 117.494C396.669 116.981 388.755 120.744 387.956 121.01C386.314 121.559 393.883 115.576 389.674 116.987C385.113 118.516 391.883 114.415 393.305 113.673C394.911 112.836 393.51 114.162 393.889 113.471C394.495 112.365 398.002 108.302 394.829 111.611C393.767 112.719 397.227 109.721 398.395 108.737C400.596 106.883 397.804 109.696 397.261 110.157C394.757 112.282 394.171 110.567 392.138 111.509C391.289 111.903 389.221 113.209 389.221 111.679C389.221 109.037 398.157 107.834 399.789 107.756C409.784 107.283 416.779 102.684 425.984 100.284C430.413 99.1292 435.254 97.4659 439.405 95.4153C442.483 93.8945 448.65 89.1331 451.919 90.1069C453.203 90.4897 433.388 102.514 439.081 98.5936C443.79 95.3503 449.19 93.0728 442.128 99.1684C436.471 104.052 446.424 98.3636 447.218 98.695C448.645 99.2903 438.431 105.374 446.213 101.637C449.189 100.207 451.659 100.136 451.659 96.7678C451.659 92.1949 452.859 86.775 447.283 88.8897C440.848 91.33 435.684 96.546 429.031 98.5936C424.445 100.005 419.976 101.788 415.48 103.462C410.262 105.406 400.819 107.579 397.098 112.321C395.116 114.848 391.585 124.697 398.881 120.436C405.575 116.526 406.64 108.617 410.228 102.38C412.01 99.2829 407.123 108.923 406.403 112.456C405.575 116.52 409.241 121.197 413.438 120.436C418.04 119.601 422.882 112.972 424.525 108.94C432.421 89.5615 418.098 108.357 422.158 112.591C426.467 117.086 433.034 105.18 433.894 102.245C434.93 98.7089 435.539 94.3498 436.779 90.986C438.388 86.6233 428.115 91.5369 427.151 92.0342C421.808 94.7881 418.078 98.4618 414.443 103.327C413.127 105.088 407.846 113.378 411.46 115.262C416.304 117.788 422.25 109.937 422.385 105.863C422.841 92.0612 411.946 99.1347 405.365 104.544C401.299 107.887 404.832 114.568 405.56 113.809" stroke="#00ADB5" stroke-opacity="0.5" stroke-linecap="round" stroke-linejoin="round"/>
<path d="M255.59 453.408C255.337 453.62 245.735 462.257 245.735 459.799C245.735 458.358 246.798 456.818 247.745 455.877C249.618 454.016 257.016 452.585 255.234 457.128C254.039 460.175 249.155 464.665 247.777 458.92C247.205 456.534 251.132 451.746 253.516 453.78C256.144 456.024 250.493 458.881 248.718 457.872C245.546 456.068 249.355 449.645 252.413 450.974C255.612 452.364 251.213 456.165 249.755 456.925C246.347 458.702 246.824 455.829 245.087 454.017" stroke="#00ADB5" stroke-opacity="0.5" stroke-linecap="round" stroke-linejoin="round"/>
<path d="M97.4512 452.8C100.815 458.581 107.222 464.579 100.693 469.841C99.0092 471.198 89.0756 476.624 89.6707 470.314C90.3953 462.63 101.375 462.459 102.055 455.572C102.727 448.762 87.1309 451.328 83.5759 446.714C81.3489 443.823 79.553 437.418 80.0747 433.73C80.2779 432.294 83.7701 429.507 83.4138 432.107C82.7616 436.869 68.0413 449.066 76.768 453.07C82.6189 455.755 84.1283 448.957 88.4388 447.322C97.3175 443.955 84.0298 468.93 84.0298 462.538" stroke="#00ADB5" stroke-opacity="0.5" stroke-linecap="round" stroke-linejoin="round"/>
<path d="M383.385 531.918C380.683 538.588 375.216 559.142 375.216 551.9C375.216 550.772 375.425 549.88 375.799 548.824C377.556 543.866 379.59 539.251 382.543 534.893C384.154 532.515 386.074 525.55 388.378 530.836C389.453 533.302 392.527 540.168 391.231 542.873C389.603 546.268 384.551 548.215 381.181 548.35C380.303 548.386 371.098 549.647 374.081 546.795C377.587 543.444 380.979 533.25 386.271 532.56C387.087 532.454 388.795 533.024 389.513 533.44C390.777 534.172 389.237 535.495 388.637 536.516C387.918 537.741 382.229 546.017 382.218 545.645C382.057 540.1 387.512 532.048 390.453 527.861C391.507 526.359 385.898 536.55 384.617 538.849C383.627 540.629 384.919 544.41 380.468 543.482" stroke="#00ADB5" stroke-opacity="0.5" stroke-linecap="round" stroke-linejoin="round"/>
<path d="M202.488 42.6022C199.885 53.2249 197.565 63.3462 196.62 74.1819C196.526 75.2657 195.869 75.9664 196.523 76.8191C197.496 78.0881 200.071 70.0195 201.062 67.8592C204.202 61.0116 207.74 58.3093 207.74 49.9054C207.74 48.6928 207.74 41.7133 207.74 46.3214C207.74 50.2336 208.451 54.1003 208.194 58.0201C208 60.9828 205.273 68.9785 207.286 66.8786C210.394 63.6375 207.904 47.3866 203.039 46.9638C196.399 46.3867 193.197 61.3977 192.438 66.0672C191.555 71.5 195.228 73.7745 199.279 69.5497C204.808 63.7833 206.007 51.9281 201.256 45.1718C194.73 35.8898 190.447 52.6377 189.91 56.7353C188.694 66.0042 193.658 68.9743 199.538 62.3817C201.701 59.957 206.061 55.7643 205.146 52.0017C203.93 46.9968 196.837 51.8568 195.421 54.0304C193.413 57.1124 193.439 64.7894 196.685 66.9801C199.716 69.0254 202.666 60.5502 202.326 58.4258C200.886 49.4161 184.603 63.7187 192.698 68.8397C199.743 73.2967 204.414 53.3566 195.745 55.8224C193.331 56.509 187.598 63.2946 192.568 63.2946" stroke="#00ADB5" stroke-opacity="0.5" stroke-linecap="round" stroke-linejoin="round"/>
<path d="M47.8502 216.054C45.228 223.802 43.3402 228.748 36.6982 233.095C35.0305 234.186 32.8265 236.116 32.4837 238.301C31.7512 242.97 38.8123 248.116 42.8253 246.72C51.281 243.781 38.4857 235.053 37.1196 232.52C34.7411 228.11 43.3377 220.188 47.2991 222.512C50.3827 224.321 51.7496 230.625 49.925 233.703C47.267 238.188 41.554 238.365 37.0872 237.659C33.5298 237.097 26.4042 237.861 28.4962 243.373C31.1139 250.27 43.4684 246.655 45.3216 240.803C47.1258 235.106 37.3583 232.959 39.4538 227.617C40.8931 223.948 45.4379 219.367 49.4712 219.367C54.3023 219.367 49.4777 228.779 48.758 230.254C45.5798 236.77 40.717 237.419 34.5585 239.181C22.9677 242.495 35.4544 242.962 36.1794 239.181" stroke="#00ADB5" stroke-opacity="0.5" stroke-linecap="round" stroke-linejoin="round"/>
<path d="M33.8452 299.432C32.6064 304.297 28.944 312.599 29.3065 317.893C29.4764 320.373 30.1261 312.991 30.4088 310.522C30.9474 305.818 31.5635 300.504 33.9748 296.389C34.4028 295.659 44.2998 308.543 45.1918 310.657C47.5788 316.316 44.5903 315.238 40.8476 317.082C38.7675 318.106 24.5734 323.332 24.5734 321.95C24.5734 320.504 27.2493 317.562 27.8801 316.338C29.8544 312.507 31.9727 307.697 32.8078 303.422C34.5911 294.291 33.2616 313.081 33.2616 314.512C33.2616 315.38 33.5853 320.463 31.6407 320.463C29.207 320.463 33.286 315.685 34.1045 313.295C34.9725 310.76 38.4277 303.289 37.5733 300.616C36.3632 296.829 35.7578 308.427 35.6282 312.416C35.5403 315.119 34.2859 319.632 36.309 315.256C36.9536 313.861 39.0345 308.144 38.9998 308.561C38.7064 312.08 37.3464 315.707 37.3464 319.245C37.3464 322.867 39.178 311.209 42.3389 309.711C43.1248 309.338 42.0147 316.211 42.0147 317.217C42.0147 319.049 43.7005 310.178 43.7005 312.01C43.7005 312.52 43.001 315.606 42.4686 314.647C40.2863 310.716 38.6444 308.286 34.1693 306.871C32.1312 306.226 25.653 306.668 27.7828 306.668C29.1828 306.668 31.3815 301.587 32.9374 302.915C35.0017 304.676 32.1687 310.299 31.511 312.213C30.4342 315.346 29.76 310.94 32.4187 311.266C35.1891 311.606 32.3627 322.275 33.91 319.854C34.6281 318.731 36.8035 313.188 36.7304 313.836C35.3179 326.358 35.6118 310.412 37.9299 314.039" stroke="#00ADB5" stroke-opacity="0.5" stroke-linecap="round" stroke-linejoin="round"/>
<path d="M322.697 133.892C330.122 133.51 337.292 136.373 336.119 127.198C335.538 122.651 333.095 115.219 334.368 110.766C335.72 106.037 344.021 95.3743 336.929 92.0341C330.983 89.2332 323.211 97.1539 322.114 102.516C321.658 104.746 321.755 111.712 325.291 111.712C327.963 111.712 329.67 108.976 332.002 111.408C335.05 114.587 335.594 117.487 333.428 121.484C328.229 131.077 307.661 120.362 318.742 108.805C320.261 107.22 326.269 99.9553 329.116 102.042C333.034 104.913 332.504 112.389 330.478 116.108C328.458 119.816 321.042 123.7 318.126 118.948C316.685 116.6 317.375 115.026 319.78 115.026" stroke="#00ADB5" stroke-opacity="0.5" stroke-linecap="round" stroke-linejoin="round"/>
<path d="M384.864 190.848C385.549 190.559 406.897 179.568 405.904 185.607C405.371 188.848 405.727 191.871 406.163 195.108C406.33 196.346 409.224 205.995 406.326 205.995C400.924 205.995 395.653 203.166 390.246 204.237C388.004 204.681 383.54 206.283 383.373 202.546C383.248 199.745 381.016 187.15 386.323 188.38C390.697 189.393 390.887 185.773 387.782 193.823C387.341 194.966 384.444 203.553 384.929 203.155C389.783 199.177 392.446 191.528 396.892 186.892C399.668 183.996 394.909 195.617 394.331 197.069C391.377 204.486 398.927 190.783 399.777 189.428C403.508 183.475 400.675 194.132 400.101 195.886C398.375 201.159 403.681 191.312 405.807 190.002C412.849 185.662 406.196 200.653 404.705 197.542" stroke="#00ADB5" stroke-opacity="0.5" stroke-linecap="round" stroke-linejoin="round"/>
<path d="M327.366 305.518C327.701 314.464 327.551 319.344 334.822 313.701C336.885 312.099 336.009 315.888 335.503 316.811C334.658 318.353 329.704 326.107 334.692 323.134C335.955 322.381 339.361 320.878 339.361 323.776C339.361 324.233 337.834 329.831 339.328 328.273C341.778 325.719 341.821 316.09 341.954 312.348C341.983 311.531 342.325 310.581 341.63 310.996C338.053 313.127 336.355 324.288 334.498 328.645C332.895 332.406 328.273 327.975 325.615 326.211C320.576 322.867 323.745 325.242 323.864 324.993" stroke="#00ADB5" stroke-opacity="0.5" stroke-linecap="round" stroke-linejoin="round"/>
<path d="M287.101 385.245C287.08 385.529 286.394 403 286.518 394.509C286.555 391.918 286.484 389.325 286.518 386.733C286.614 379.373 287.874 382.788 290.927 385.82C292.326 387.21 297.462 390.211 296.632 393.022C296.388 393.85 288.144 395.347 286.842 395.862C285.865 396.248 280.099 400.035 280.099 399.852C280.099 395.329 281.626 390.436 282.141 385.921C283.232 376.363 289.574 401.95 289.987 395.49C290.084 393.969 290.019 384.915 290.019 387.172C290.019 388.854 291.186 397.817 291.186 391.94C291.186 390.61 291.186 389.28 291.186 387.95C291.186 387.323 291.514 390.325 291.737 389.742C292.546 387.634 291.186 383.395 291.186 388.559C291.186 394.355 289.628 390.182 286.226 390.182C283.316 390.182 281.649 401.305 283.146 398.702C284.458 396.422 281.874 387.14 283.017 391.906C283.615 394.401 285.051 391.643 285.934 390.723" stroke="#00ADB5" stroke-opacity="0.5" stroke-linecap="round" stroke-linejoin="round"/>
</svg>
