<svg width="80" height="80" viewBox="0 0 80 80" fill="none" xmlns="http://www.w3.org/2000/svg">
<g clip-path="url(#clip0_502_8524)">
<path d="M80 0H0V80H80V0Z" fill="url(#paint0_linear_502_8524)"/>
<path fill-rule="evenodd" clip-rule="evenodd" d="M27 53H52V28H27V53ZM54 28H58V30H54V34H58V36H54V39H58V41H54V45H58V47H54V51H58V53H54V53.136C54 54.164 53.164 55 52.136 55H52V59H50V55H46V59H44V55H41V59H39V55H35V59H33V55H29V59H27V55H26.864C25.836 55 25 54.164 25 53.136V53H22V51H25V47H22V45H25V41H22V39H25V36H22V34H25V30H22V28H25V27.864C25 26.836 25.836 26 26.864 26H27V22H29V26H33V22H35V26H39V22H41V26H44V22H46V26H50V22H52V26H52.136C53.164 26 54 26.836 54 27.864V28ZM41 65.876C41 65.944 40.944 66 40.876 66H14.124C14.056 66 14 65.944 14 65.876V39.124C14 39.056 14.056 39 14.124 39H20V37H14.124C12.953 37 12 37.953 12 39.124V65.876C12 67.047 12.953 68 14.124 68H40.876C42.047 68 43 67.047 43 65.876V61H41V65.876ZM68 14.124V40.876C68 42.047 67.047 43 65.876 43H60V41H65.876C65.944 41 66 40.944 66 40.876V14.124C66 14.056 65.944 14 65.876 14H39.124C39.056 14 39 14.056 39 14.124V20H37V14.124C37 12.953 37.953 12 39.124 12H65.876C67.047 12 68 12.953 68 14.124Z" fill="white"/>
</g>
<defs>
<linearGradient id="paint0_linear_502_8524" x1="0" y1="8000" x2="8000" y2="0" gradientUnits="userSpaceOnUse">
<stop stop-color="#C8511B"/>
<stop offset="1" stop-color="#FF9900"/>
</linearGradient>
<clipPath id="clip0_502_8524">
<rect width="80" height="80" rx="15" fill="white"/>
</clipPath>
</defs>
</svg>
