<svg width="80" height="80" viewBox="0 0 80 80" fill="none" xmlns="http://www.w3.org/2000/svg">
<g clip-path="url(#clip0_502_8636)">
<path d="M80 0H0V80H80V0Z" fill="url(#paint0_linear_502_8636)"/>
<path fill-rule="evenodd" clip-rule="evenodd" d="M38.2951 27.2267C42.7873 27.2267 45.2478 28.2332 45.6965 28.7379C45.2478 29.2427 42.7873 30.2491 38.2951 30.2491C33.8028 30.2491 31.3423 29.2427 30.8936 28.7379C31.3423 28.2332 33.8028 27.2267 38.2951 27.2267ZM37.7839 35.2824C37.6191 35.1977 37.503 35.0295 37.503 34.83C37.503 34.5499 37.7293 34.3213 38.0062 34.3213C38.0866 34.3213 38.1601 34.3444 38.2285 34.3797L37.7839 35.2824ZM43.5675 43.5909C43.493 43.6513 43.3223 43.7682 42.9709 43.9092C42.6583 44.0342 42.2881 44.147 41.8682 44.2457C40.7526 44.5077 39.3809 44.6517 38.0052 44.6517C34.9968 44.6517 32.9006 44.0019 32.4489 43.5989L31.116 31.1508C33.1596 31.987 36.17 32.264 38.2951 32.264C40.3844 32.264 43.3293 31.995 45.3719 31.1911L44.5749 36.6656C43.0732 36.0994 41.1992 35.2773 39.4236 34.4129C39.2429 33.7863 38.6802 33.3249 38.0062 33.3249C37.1884 33.3249 36.5234 34.0009 36.5234 34.83C36.5234 35.6612 37.1884 36.3362 38.0062 36.3362C38.1998 36.3362 38.3844 36.2959 38.5531 36.2274C41.0345 37.4524 42.8836 38.2383 44.2751 38.7228L43.5675 43.5909ZM28.8718 28.8467L30.4787 43.8498C30.5919 46.6344 37.6995 46.6667 38.0052 46.6667C39.5268 46.6667 41.0573 46.5034 42.3149 46.2093C42.83 46.0884 43.2965 45.9453 43.7005 45.7831C44.8737 45.3116 45.489 44.6689 45.5317 43.874L46.2007 39.2759C46.6563 39.3696 47.0285 39.4109 47.3252 39.4109C48.2592 39.4109 48.5054 39.0281 48.6751 38.7641C48.8538 38.4861 48.9054 38.1446 48.822 37.801C48.6314 37.0112 47.5168 35.9715 46.7724 35.3539L47.7133 28.885L47.7044 28.884C47.7084 28.8346 47.7243 28.7883 47.7243 28.7379C47.7243 25.9543 41.7968 25.2118 38.2951 25.2118C34.7933 25.2118 28.8659 25.9543 28.8659 28.7379C28.8659 28.7752 28.8788 28.8084 28.8807 28.8457L28.8718 28.8467ZM37.8355 20.0597C46.4865 20.0597 53.5247 27.2036 53.5247 35.9846C53.5247 44.7656 46.4865 51.9095 37.8355 51.9095C29.1835 51.9095 22.1453 44.7656 22.1453 35.9846C22.1453 27.2036 29.1835 20.0597 37.8355 20.0597ZM12.9851 41.8349V43.8498H21.918V43.7309C24.7736 49.7495 30.8261 53.9244 37.8355 53.9244C47.5803 53.9244 55.5098 45.8768 55.5098 35.9846C55.5098 26.0923 47.5803 18.0448 37.8355 18.0448C30.2534 18.0448 23.791 22.9249 21.2858 29.7454H12.9851V31.7603H20.6763C20.3667 33.0569 20.185 34.4019 20.1701 35.7901H11V37.805H20.2515C20.3915 39.2044 20.7061 40.5484 21.1448 41.8349H12.9851ZM67.0799 66.035C65.8789 67.2561 63.7966 67.2631 62.5966 66.0461L51.9326 55.221C53.6488 53.9224 55.1803 52.39 56.4934 50.6763L67.0918 61.4854C67.6883 62.0919 68.0169 62.8998 68.0149 63.7592C68.0139 64.6206 67.6824 65.4276 67.0799 66.035ZM68.4973 60.0628L57.6616 49.01C60.0636 45.2562 61.4651 40.7851 61.4651 35.9846C61.4651 22.7587 50.8647 12 37.8355 12C28.4728 12 19.9826 17.6196 16.2039 26.317L18.0203 27.129C21.4813 19.163 29.2589 14.0149 37.8355 14.0149C49.7709 14.0149 59.48 23.8699 59.48 35.9846C59.48 48.0983 49.7709 57.9542 37.8355 57.9542C29.8624 57.9542 22.5572 53.5244 18.7687 46.3936L17.0218 47.3507C21.1557 55.1343 29.1319 59.9691 37.8355 59.9691C42.3913 59.9691 46.6483 58.6504 50.2602 56.3735L61.1941 67.4717C62.1648 68.457 63.4561 69 64.8278 69C66.2075 69 67.5067 68.4529 68.4814 67.4626C69.4581 66.4773 69.998 65.1636 70 63.7622C70.003 62.3629 69.468 61.0491 68.4973 60.0628Z" fill="white"/>
</g>
<defs>
<linearGradient id="paint0_linear_502_8636" x1="0" y1="8000" x2="8000" y2="0" gradientUnits="userSpaceOnUse">
<stop stop-color="#4D27A8"/>
<stop offset="1" stop-color="#A166FF"/>
</linearGradient>
<clipPath id="clip0_502_8636">
<rect width="80" height="80" rx="15" fill="white"/>
</clipPath>
</defs>
</svg>
