<svg width="80" height="80" viewBox="0 0 80 80" fill="none" xmlns="http://www.w3.org/2000/svg">
<g clip-path="url(#clip0_502_8641)">
<path d="M65 0H15C6.71573 0 0 6.71573 0 15V65C0 73.2843 6.71573 80 15 80H65C73.2843 80 80 73.2843 80 65V15C80 6.71573 73.2843 0 65 0Z" fill="url(#paint0_linear_502_8641)"/>
<path fill-rule="evenodd" clip-rule="evenodd" d="M45.0911 19.5491C45.0911 18.7185 44.4177 18.0451 43.5871 18.0451H43.0921C42.5348 18.0451 42.0831 17.5934 42.0831 17.0361C42.0831 16.4788 42.5348 16.0271 43.0921 16.0271H43.5871C44.4177 16.0271 45.0911 15.3537 45.0911 14.5231V14.0027C45.0911 13.4489 45.54 13 46.0938 13C46.6476 13 47.0965 13.4489 47.0965 14.0027V14.5231C47.0965 15.3537 47.7698 16.0271 48.6005 16.0271H49.0955C49.6527 16.0271 50.1045 16.4788 50.1045 17.0361C50.1045 17.5934 49.6527 18.0451 49.0955 18.0451H48.6005C47.7698 18.0451 47.0965 18.7185 47.0965 19.5491V20.0695C47.0965 20.6233 46.6476 21.0722 46.0938 21.0722C45.54 21.0722 45.0911 20.6233 45.0911 20.0695V19.5491ZM57.1233 30.6484C57.1233 29.8178 56.4499 29.1444 55.6192 29.1444H55.1242C54.567 29.1444 54.1152 28.6926 54.1152 28.1354C54.1152 27.5781 54.567 27.1264 55.1242 27.1264H55.6192C56.4499 27.1264 57.1233 26.453 57.1233 25.6223V25.102C57.1233 24.5482 57.5722 24.0993 58.1259 24.0993C58.6797 24.0993 59.1286 24.5482 59.1286 25.102V25.6223C59.1286 26.453 59.802 27.1264 60.6326 27.1264H61.1276C61.6849 27.1264 62.1367 27.5781 62.1367 28.1354C62.1367 28.6926 61.6849 29.1444 61.1276 29.1444H60.6326C59.802 29.1444 59.1286 29.8178 59.1286 30.6484V31.1688C59.1286 31.7226 58.6797 32.1715 58.1259 32.1715C57.5722 32.1715 57.1233 31.7226 57.1233 31.1688V30.6484ZM56.4286 54.274C54.3626 56.3433 49.4404 56.3437 47.3743 54.2745C45.3179 52.2149 45.3175 47.3703 47.374 45.3108C49.4401 43.2416 54.3629 43.2421 56.429 45.3112C58.4854 47.3707 58.485 52.2145 56.4286 54.274ZM67.9973 48.7831C60.9445 48.7831 52.904 40.6917 52.904 33.5942C52.904 33.0372 52.4558 32.5852 51.9013 32.5852C51.3468 32.5852 50.8986 33.0372 50.8986 33.5942C50.8986 40.6917 42.8571 48.7831 35.8043 48.7831C35.2508 48.7831 34.8016 49.2351 34.8016 49.7921C34.8016 50.3501 35.2508 50.8011 35.8043 50.8011C42.8571 50.8011 50.8986 58.8925 50.8986 65.991C50.8986 66.548 51.3468 67 51.9013 67C52.4558 67 52.904 66.548 52.904 65.991C52.904 58.8925 60.9445 50.8011 67.9973 50.8011C68.5508 50.8011 69 50.3501 69 49.7921C69 49.2351 68.5508 48.7831 67.9973 48.7831ZM13.0054 37.5516C13.0054 33.9597 17.5551 31.1668 21.1041 31.7207C23.0162 32.0192 25.0449 32.1715 27.0429 32.1715C29.1715 32.1715 31.3351 31.9986 33.3554 31.6603C36.743 31.093 41.0804 33.7385 41.0804 37.1732C41.0804 38.0785 40.803 38.9898 40.0628 39.511C37.8399 41.0761 33.1579 42.406 27.2434 42.406C19.0946 42.406 13.0054 39.8431 13.0054 37.5516ZM27.0429 21.0722C35.7401 21.0722 41.0804 23.7169 41.0804 25.6128C41.0804 27.5088 35.7401 30.1534 27.0429 30.1534C18.3456 30.1534 13.0054 27.5088 13.0054 25.6128C13.0054 23.7169 18.3456 21.0722 27.0429 21.0722ZM41.0804 58.9419C41.0804 61.2677 35.0753 63.87 27.0379 63.87C19.0064 63.87 13.0054 61.2677 13.0054 58.9419C13.0054 56.3009 16.3322 54.378 18.8991 54.9995C21.4774 55.6237 24.4204 55.9451 27.3006 55.9451C30.7514 55.9451 34.1005 55.5067 36.8541 54.7019C37.387 54.5462 37.6674 53.9741 37.4902 53.4481C37.3119 52.9186 36.7379 52.6369 36.201 52.7913C33.6462 53.5263 30.5299 53.9271 27.3006 53.9271C19.1187 53.9271 13.0054 51.3641 13.0054 49.0727C13.0054 45.7586 17.2496 43.2259 20.5087 43.8268C22.6513 44.2219 24.9671 44.4241 27.2434 44.4241C32.1084 44.4241 36.4047 43.5958 39.3541 42.2227C40.1162 41.8679 41.0804 42.3948 41.0804 43.2354V43.2771C41.0804 43.8309 41.5293 44.2798 42.0831 44.2798C42.6368 44.2798 43.0857 43.8309 43.0857 43.2771V25.6128C43.0857 21.3527 34.8207 19.0542 27.0429 19.0542C19.5999 19.0542 11.7298 21.1649 11.0668 25.08C11.0641 25.0962 11.05 25.1083 11.0336 25.1083C11.015 25.1083 11 25.1233 11 25.1419V58.9419C11 63.4533 19.2631 65.8881 27.0379 65.8881C34.8176 65.8881 43.0857 63.4533 43.0857 58.9419V56.3817C43.0857 55.828 42.6368 55.3791 42.0831 55.3791C41.5293 55.3791 41.0804 55.828 41.0804 56.3817V58.9419Z" fill="white"/>
</g>
<defs>
<linearGradient id="paint0_linear_502_8641" x1="0" y1="8000" x2="8000" y2="0" gradientUnits="userSpaceOnUse">
<stop stop-color="#2E27AD"/>
<stop offset="1" stop-color="#527FFF"/>
</linearGradient>
<clipPath id="clip0_502_8641">
<rect width="80" height="80" fill="white"/>
</clipPath>
</defs>
</svg>
