<svg width="80" height="80" viewBox="0 0 80 80" fill="none" xmlns="http://www.w3.org/2000/svg">
<g clip-path="url(#clip0_502_8631)">
<path d="M80 0H0V80H80V0Z" fill="url(#paint0_linear_502_8631)"/>
<path fill-rule="evenodd" clip-rule="evenodd" d="M50.825 35.1705C49.7652 35.1705 48.9042 34.3111 48.9042 33.2542C48.9042 32.1974 49.7652 31.337 50.825 31.337C51.8839 31.337 52.7449 32.1974 52.7449 33.2542C52.7449 34.3111 51.8839 35.1705 50.825 35.1705ZM45.9594 46.8245C44.9006 46.8245 44.0395 45.9651 44.0395 44.9083C44.0395 43.8514 44.9006 42.992 45.9594 42.992C47.0182 42.992 47.8803 43.8514 47.8803 44.9083C47.8803 45.9651 47.0182 46.8245 45.9594 46.8245ZM34.2823 44.8824C33.2245 44.8824 32.3634 44.0229 32.3634 42.9661C32.3634 41.9093 33.2245 41.0489 34.2823 41.0489C35.3421 41.0489 36.2032 41.9093 36.2032 42.9661C36.2032 44.0229 35.3421 44.8824 34.2823 44.8824ZM29.4177 55.5653C28.3599 55.5653 27.4978 54.7059 27.4978 53.6491C27.4978 52.5922 28.3599 51.7328 29.4177 51.7328C30.4775 51.7328 31.3386 52.5922 31.3386 53.6491C31.3386 54.7059 30.4775 55.5653 29.4177 55.5653ZM50.825 29.343C48.6644 29.343 46.9064 31.0977 46.9064 33.2542C46.9064 34.5763 47.5706 35.7418 48.5805 36.4506L46.7525 41.0788C46.4958 41.0259 46.2301 40.998 45.9594 40.998C44.2413 40.998 42.7939 42.1147 42.2675 43.655L38.177 42.7268C38.0502 40.6839 36.362 39.0548 34.2823 39.0548C32.1227 39.0548 30.3656 40.8096 30.3656 42.9661C30.3656 43.9741 30.7592 44.8853 31.3895 45.5793L29.6045 49.7577C29.5406 49.7537 29.4816 49.7388 29.4177 49.7388C27.2581 49.7388 25.5 51.4925 25.5 53.6491C25.5 55.8046 27.2581 57.5593 29.4177 57.5593C31.5783 57.5593 33.3364 55.8046 33.3364 53.6491C33.3364 52.2652 32.6092 51.0548 31.5194 50.3589L33.0946 46.673C33.4722 46.7936 33.8658 46.8764 34.2823 46.8764C35.8236 46.8764 37.1472 45.9761 37.7854 44.683L42.1187 45.666C42.4733 47.4606 44.0595 48.8185 45.9594 48.8185C48.12 48.8185 49.8781 47.0648 49.8781 44.9083C49.8781 43.7428 49.3537 42.7069 48.5406 41.989L50.4614 37.1276C50.5833 37.1396 50.7002 37.1645 50.825 37.1645C52.9846 37.1645 54.7427 35.4098 54.7427 33.2542C54.7427 31.0977 52.9846 29.343 50.825 29.343ZM40 66.006C30.2688 66.006 22.9978 63.0847 22.9978 60.4726V23.1515C26.3081 25.8415 33.3154 27.2632 40.021 27.2632C46.6966 27.2632 53.6739 25.8534 57.0022 23.1864V60.4726C57.0022 63.0847 49.7302 66.006 40 66.006ZM40.021 13.994C50.0279 13.994 57.0022 16.9651 57.0022 19.6321C57.0022 22.2981 50.0279 25.2692 40.021 25.2692C30.013 25.2692 23.0397 22.2981 23.0397 19.6321C23.0397 16.9651 30.013 13.994 40.021 13.994ZM59 19.6321C59 14.675 49.2218 12 40.021 12C30.8201 12 21.042 14.675 21.042 19.6321C21.042 19.6401 21.044 19.6491 21.044 19.657H21V60.4726C21 65.3619 30.7892 68 40 68C49.2108 68 59 65.3619 59 60.4726V19.657H58.998C58.998 19.6491 59 19.6401 59 19.6321Z" fill="white"/>
</g>
<defs>
<linearGradient id="paint0_linear_502_8631" x1="0" y1="8000" x2="8000" y2="0" gradientUnits="userSpaceOnUse">
<stop stop-color="#4D27A8"/>
<stop offset="1" stop-color="#A166FF"/>
</linearGradient>
<clipPath id="clip0_502_8631">
<rect width="80" height="80" rx="15" fill="white"/>
</clipPath>
</defs>
</svg>
