<svg width="80" height="80" viewBox="0 0 80 80" fill="none" xmlns="http://www.w3.org/2000/svg">
<g clip-path="url(#clip0_502_8621)">
<path d="M80 0H0V80H80V0Z" fill="url(#paint0_linear_502_8621)"/>
<path fill-rule="evenodd" clip-rule="evenodd" d="M51.9969 52.4963H58.9969V50.4963H51.9969V52.4963ZM42.9969 52.4963H49.9969V50.4963H42.9969V52.4963ZM33.9969 52.4963H40.9969V50.4963H33.9969V52.4963ZM44.9969 44.4963C44.9969 43.3933 45.8949 42.4963 46.9969 42.4963C48.0999 42.4963 48.9969 43.3933 48.9969 44.4963C48.9969 45.5993 48.0999 46.4963 46.9969 46.4963C45.8949 46.4963 44.9969 45.5993 44.9969 44.4963ZM50.9969 44.4963C50.9969 42.2903 49.2039 40.4963 46.9969 40.4963C44.7909 40.4963 42.9969 42.2903 42.9969 44.4963C42.9969 46.7023 44.7909 48.4963 46.9969 48.4963C49.2039 48.4963 50.9969 46.7023 50.9969 44.4963ZM36.9969 42.4963C38.0999 42.4963 38.9969 43.3933 38.9969 44.4963C38.9969 45.5993 38.0999 46.4963 36.9969 46.4963C35.8949 46.4963 34.9969 45.5993 34.9969 44.4963C34.9969 43.3933 35.8949 42.4963 36.9969 42.4963ZM36.9969 48.4963C39.2039 48.4963 40.9969 46.7023 40.9969 44.4963C40.9969 42.2903 39.2039 40.4963 36.9969 40.4963C34.7909 40.4963 32.9969 42.2903 32.9969 44.4963C32.9969 46.7023 34.7909 48.4963 36.9969 48.4963ZM65.9969 33.4963V56.4963C65.9969 57.0483 65.5499 57.4963 64.9969 57.4963H33.9969V55.4963H63.9969V34.4963H41.9969V32.4963H64.9969C65.5499 32.4963 65.9969 32.9443 65.9969 33.4963ZM30.6959 38.5433C30.2799 38.6743 29.9969 39.0603 29.9969 39.4963V60.5363L27.5979 62.5933L24.9969 59.6203V56.9963C24.9969 56.7313 24.8919 56.4763 24.7039 56.2893L22.4119 53.9963L24.7039 51.7033C24.8919 51.5163 24.9969 51.2613 24.9969 50.9963V48.9963C24.9969 48.7313 24.8919 48.4763 24.7039 48.2893L22.4119 45.9963L24.7039 43.7033C24.8919 43.5163 24.9969 43.2613 24.9969 42.9963V39.5063C24.9969 39.0703 24.7149 38.6843 24.2989 38.5533C19.1569 36.9233 16.1169 31.6343 17.2299 26.2493C18.0319 22.3693 21.0159 19.2583 24.8309 18.3233C28.0799 17.5263 31.4119 18.2233 33.9719 20.2303C36.5299 22.2373 37.9969 25.2503 37.9969 28.4963C37.9969 33.0493 34.9949 37.1813 30.6959 38.5433ZM39.9969 28.4963C39.9969 24.6323 38.2509 21.0453 35.2059 18.6563C32.1609 16.2673 28.2089 15.4363 24.3549 16.3813C19.7939 17.4983 16.2289 21.2133 15.2709 25.8443C14.0009 31.9893 17.2999 38.0343 22.9969 40.2153V42.5823L20.2899 45.2893C19.8999 45.6803 19.8999 46.3123 20.2899 46.7033L22.9969 49.4103V50.5823L20.2899 53.2893C19.8999 53.6803 19.8999 54.3123 20.2899 54.7033L22.9969 57.4103V59.9963C22.9969 60.2383 23.0849 60.4723 23.2449 60.6553L26.7449 64.6553C26.9429 64.8803 27.2189 64.9963 27.4969 64.9963C27.7279 64.9963 27.9589 64.9173 28.1479 64.7553L31.6479 61.7553C31.8699 61.5653 31.9969 61.2883 31.9969 60.9963V40.2043C36.7429 38.3723 39.9969 33.6623 39.9969 28.4963ZM27.4969 30.8663C26.1189 30.8663 24.9969 29.7453 24.9969 28.3663C24.9969 26.9883 26.1189 25.8663 27.4969 25.8663C28.8759 25.8663 29.9969 26.9883 29.9969 28.3663C29.9969 29.7453 28.8759 30.8663 27.4969 30.8663ZM27.4969 23.8663C25.0159 23.8663 22.9969 25.8853 22.9969 28.3663C22.9969 30.8483 25.0159 32.8663 27.4969 32.8663C29.9789 32.8663 31.9969 30.8483 31.9969 28.3663C31.9969 25.8853 29.9789 23.8663 27.4969 23.8663Z" fill="white"/>
</g>
<defs>
<linearGradient id="paint0_linear_502_8621" x1="0" y1="8000" x2="8000" y2="0" gradientUnits="userSpaceOnUse">
<stop stop-color="#BD0816"/>
<stop offset="1" stop-color="#FF5252"/>
</linearGradient>
<clipPath id="clip0_502_8621">
<rect width="80" height="80" rx="15" fill="white"/>
</clipPath>
</defs>
</svg>
