<svg width="80" height="80" viewBox="0 0 80 80" fill="none" xmlns="http://www.w3.org/2000/svg">
<g clip-path="url(#clip0_502_8534)">
<path d="M80 0H0V80H80V0Z" fill="url(#paint0_linear_502_8534)"/>
<path fill-rule="evenodd" clip-rule="evenodd" d="M35.5082 30.8559C34.222 30.8559 33.1764 29.8091 33.1764 28.5236C33.1764 27.237 34.222 26.1902 35.5082 26.1902C36.7945 26.1902 37.8411 27.237 37.8411 28.5236C37.8411 29.8091 36.7945 30.8559 35.5082 30.8559ZM33.8235 38.5512C36.0385 38.5512 37.8411 40.3542 37.8411 42.5697C37.8411 44.7851 36.0385 46.5881 33.8235 46.5881C31.6085 46.5881 29.8059 44.7851 29.8059 42.5697C29.8059 40.3542 31.6085 38.5512 33.8235 38.5512ZM33.8235 49.9593C26.033 49.9593 19.6946 43.6195 19.6946 35.8273C19.6946 28.0351 26.033 21.6953 33.8235 21.6953C41.614 21.6953 47.9524 28.0351 47.9524 35.8273C47.9524 37.835 47.525 39.7429 46.766 41.4749L39.5198 40.4211C38.9765 38.9847 37.908 37.808 36.5468 37.1248V32.7957C38.4772 32.3263 39.9183 30.5952 39.9183 28.5236C39.9183 26.0913 37.9399 24.1136 35.5082 24.1136C33.0765 24.1136 31.0992 26.0913 31.0992 28.5236C31.0992 30.5952 32.5402 32.3263 34.4696 32.7957V36.5095C34.2569 36.4875 34.0412 36.4746 33.8235 36.4746C32.2776 36.4746 30.8685 37.0579 29.792 38.0098L27.2803 35.4727C27.9484 34.5118 28.3429 33.3461 28.3429 32.0895C28.3429 30.0588 27.3223 28.1909 25.6126 27.0932L24.5341 28.7753C25.6675 29.5034 26.3456 30.742 26.3456 32.0895C26.3456 34.2641 24.577 36.0331 22.4029 36.0331V38.0308C23.6732 38.0308 24.8486 37.6263 25.8163 36.944L28.4827 39.638C28.0024 40.509 27.7287 41.5079 27.7287 42.5697C27.7287 45.9309 30.463 48.6648 33.8235 48.6648C37.181 48.6648 39.9133 45.9348 39.9183 42.5776L45.7194 43.4217C43.2068 47.3462 38.8177 49.9593 33.8235 49.9593ZM33.8235 19.6186C24.8876 19.6186 17.6174 26.8894 17.6174 35.8273C17.6174 44.7652 24.8876 52.0369 33.8235 52.0369C42.7594 52.0369 50.0296 44.7652 50.0296 35.8273C50.0296 26.8894 42.7594 19.6186 33.8235 19.6186ZM65.0952 63.8546C63.8969 65.1801 61.8356 65.2899 60.5054 64.0943L47.7687 52.6023C49.4364 51.2129 50.8914 49.5787 52.0848 47.7578L64.8556 59.2638C66.1828 60.4644 66.2896 62.5241 65.0952 63.8546ZM14.0772 35.8273C14.0772 24.9366 22.9352 16.0766 33.8235 16.0766C44.7118 16.0766 53.5698 24.9366 53.5698 35.8273C53.5698 46.718 44.7118 55.5779 33.8235 55.5779C22.9352 55.5779 14.0772 46.718 14.0772 35.8273ZM66.2457 57.7215L53.1584 45.9319C54.7452 42.9083 55.647 39.4722 55.647 35.8273C55.647 23.7909 45.8562 14 33.8235 14C21.7908 14 12 23.7909 12 35.8273C12 47.8637 21.7908 57.6556 33.8235 57.6556C38.3634 57.6556 42.5847 56.2592 46.0809 53.8759L59.1173 65.6375C60.1319 66.5505 61.4062 67 62.6765 67C64.1345 67 65.5866 66.4077 66.6381 65.244C68.5975 63.0625 68.4217 59.6883 66.2457 57.7215Z" fill="white"/>
</g>
<defs>
<linearGradient id="paint0_linear_502_8534" x1="0" y1="8000" x2="8000" y2="0" gradientUnits="userSpaceOnUse">
<stop stop-color="#BD0816"/>
<stop offset="1" stop-color="#FF5252"/>
</linearGradient>
<clipPath id="clip0_502_8534">
<rect width="80" height="80" rx="15" fill="white"/>
</clipPath>
</defs>
</svg>
