<svg width="80" height="80" viewBox="0 0 80 80" fill="none" xmlns="http://www.w3.org/2000/svg">
<g clip-path="url(#clip0_502_8518)">
<path d="M80 0H0V80H80V0Z" fill="url(#paint0_linear_502_8518)"/>
<path fill-rule="evenodd" clip-rule="evenodd" d="M60.8359 42.8925L61.2199 40.1885C64.7609 42.3095 64.8069 43.1855 64.8059 43.2095C64.7999 43.2145 64.1959 43.7185 60.8359 42.8925ZM58.8929 42.3525C52.7729 40.5005 44.2499 36.5905 40.8009 34.9605C40.8009 34.9465 40.8049 34.9335 40.8049 34.9195C40.8049 33.5945 39.7269 32.5165 38.4009 32.5165C37.0769 32.5165 35.9989 33.5945 35.9989 34.9195C35.9989 36.2445 37.0769 37.3225 38.4009 37.3225C38.9829 37.3225 39.5109 37.1055 39.9279 36.7605C43.9859 38.6815 52.4429 42.5345 58.6079 44.3545L56.1699 61.5605C56.1629 61.6075 56.1599 61.6545 56.1599 61.7015C56.1599 63.2165 49.4529 65.9995 38.4939 65.9995C27.4189 65.9995 20.6409 63.2165 20.6409 61.7015C20.6409 61.6555 20.6379 61.6105 20.6319 61.5655L15.5379 24.3585C19.9469 27.3935 29.4299 28.9995 38.4999 28.9995C47.5559 28.9995 57.0229 27.3995 61.4409 24.3735L58.8929 42.3525ZM14.9999 20.4775C15.0719 19.1615 22.6339 13.9995 38.4999 13.9995C54.3639 13.9995 61.9269 19.1605 61.9999 20.4775V20.9265C61.1299 23.8775 51.3299 26.9995 38.4999 26.9995C25.6479 26.9995 15.8429 23.8675 14.9999 20.9125V20.4775ZM63.9999 20.4995C63.9999 17.0345 54.0659 11.9995 38.4999 11.9995C22.9339 11.9995 12.9999 17.0345 12.9999 20.4995L13.0939 21.2535L18.6419 61.7775C18.7749 66.3095 30.8609 67.9995 38.4939 67.9995C47.9659 67.9995 58.0289 65.8215 58.1589 61.7805L60.5549 44.8835C61.8879 45.2025 62.9849 45.3655 63.8659 45.3655C65.0489 45.3655 65.8489 45.0765 66.3339 44.4985C66.7319 44.0245 66.8839 43.4505 66.7699 42.8395C66.5109 41.4555 64.8679 39.9635 61.5219 38.0545L63.8979 21.2925L63.9999 20.4995Z" fill="white"/>
</g>
<defs>
<linearGradient id="paint0_linear_502_8518" x1="0" y1="8000" x2="8000" y2="0" gradientUnits="userSpaceOnUse">
<stop stop-color="#1B660F"/>
<stop offset="1" stop-color="#6CAE3E"/>
</linearGradient>
<clipPath id="clip0_502_8518">
<rect width="80" height="80" rx="15" fill="white"/>
</clipPath>
</defs>
</svg>
