<svg width="80" height="80" viewBox="0 0 80 80" fill="none" xmlns="http://www.w3.org/2000/svg">
<g clip-path="url(#clip0_502_8616)">
<path d="M80 0H0V80H80V0Z" fill="url(#paint0_linear_502_8616)"/>
<path fill-rule="evenodd" clip-rule="evenodd" d="M30 53C22.832 53 17 47.168 17 40C17 32.832 22.832 27 30 27C37.168 27 43 32.832 43 40C43 47.168 37.168 53 30 53ZM60 59C60 61.206 58.206 63 56 63C53.794 63 52 61.206 52 59C52 56.794 53.794 55 56 55C58.206 55 60 56.794 60 59ZM56 17C58.206 17 60 18.794 60 21C60 23.206 58.206 25 56 25C53.794 25 52 23.206 52 21C52 18.794 53.794 17 56 17ZM59 36C61.206 36 63 37.794 63 40C63 42.206 61.206 44 59 44C56.794 44 55 42.206 55 40C55 37.794 56.794 36 59 36ZM44.949 41H53.09C53.568 43.833 56.033 46 59 46C62.309 46 65 43.309 65 40C65 36.691 62.309 34 59 34C56.033 34 53.568 36.167 53.09 39H44.949C44.823 37.099 44.344 35.297 43.572 33.654L52.446 25.823C53.442 26.559 54.669 27 56 27C59.309 27 62 24.309 62 21C62 17.691 59.309 15 56 15C52.691 15 50 17.691 50 21C50 22.256 50.389 23.421 51.051 24.386L42.581 31.859C39.904 27.738 35.271 25 30 25C21.729 25 15 31.729 15 40C15 48.271 21.729 55 30 55C35.271 55 39.904 52.262 42.581 48.141L51.051 55.614C50.389 56.579 50 57.744 50 59C50 62.309 52.691 65 56 65C59.309 65 62 62.309 62 59C62 55.691 59.309 53 56 53C54.669 53 53.442 53.441 52.446 54.177L43.572 46.346C44.344 44.703 44.823 42.901 44.949 41Z" fill="white"/>
</g>
<defs>
<linearGradient id="paint0_linear_502_8616" x1="0" y1="8000" x2="8000" y2="0" gradientUnits="userSpaceOnUse">
<stop stop-color="#4D27A8"/>
<stop offset="1" stop-color="#A166FF"/>
</linearGradient>
<clipPath id="clip0_502_8616">
<rect width="80" height="80" rx="15" fill="white"/>
</clipPath>
</defs>
</svg>
