<svg width="80" height="80" viewBox="0 0 80 80" fill="none" xmlns="http://www.w3.org/2000/svg">
<g clip-path="url(#clip0_502_8555)">
<path d="M80 0H0V80H80V0Z" fill="url(#paint0_linear_502_8555)"/>
<path fill-rule="evenodd" clip-rule="evenodd" d="M66 58.0047H57H54V52.0047H63H66V58.0047ZM56 66.0047H44V60.0047H53H56V66.0047ZM34.591 63.9907C30.422 63.9907 26.595 61.8877 24.354 58.3657C22.565 55.5557 22.534 51.9287 24.275 48.8947L24.33 48.7967C26.422 45.6217 25.672 41.2107 25.004 38.7777C26.923 39.7637 28.661 42.2747 29.278 43.3817C29.47 43.7237 29.85 43.9227 30.231 43.8927C30.622 43.8617 30.958 43.6067 31.092 43.2387C33.009 37.9727 31.723 34.0847 30.314 31.7557C31.568 32.1887 33.1 32.8407 34.616 33.7967C39.231 36.7067 41.571 40.9587 41.571 46.4337C41.571 46.7057 41.683 46.9667 41.88 47.1557C42.076 47.3437 42.341 47.4397 42.614 47.4327C43.808 47.3807 45.963 46.4637 46.96 43.5607C46.985 43.6967 47 43.8447 47 44.0047V50.0047H38C37.447 50.0047 37 50.4527 37 51.0047V59.0047C37 59.5567 37.447 60.0047 38 60.0047H42V61.5547C40.271 63.1017 37.605 63.9907 34.591 63.9907ZM18.168 46.2477C16.267 44.9597 14 42.5217 14 38.2207C14 32.2647 18.144 30.3117 20.613 29.6777C21.076 29.5587 21.391 29.1277 21.362 28.6507L21.265 27.0117C21.265 22.2667 24.533 17.1607 28.706 15.3877C35.925 12.3237 41.041 16.3527 42.904 18.2287C44.423 19.7557 45.607 21.7077 46.425 24.0277C46.548 24.3777 46.854 24.6297 47.221 24.6847C47.584 24.7397 47.954 24.5867 48.173 24.2887C49.409 22.6107 51.541 21.9117 53.47 22.5447C55.64 23.2577 56.891 25.3747 56.91 28.3577L56.904 28.3947C56.828 28.9297 57.191 29.4297 57.725 29.5217C59.606 29.8457 65.745 31.4367 65.745 38.3037C65.745 40.5047 65.158 42.3317 64 43.7617V43.0047C64 42.4527 63.553 42.0047 63 42.0047H48.494C47.876 40.8847 46.902 40.4077 46.843 40.3797C46.55 40.2467 46.21 40.2637 45.932 40.4217C45.653 40.5817 45.468 40.8657 45.435 41.1857C45.188 43.5337 44.266 44.5867 43.524 45.0567C43.049 38.1507 39.028 34.1977 35.622 32.0667C31.752 29.6457 27.925 29.0397 27.764 29.0147C27.317 28.9447 26.882 29.1867 26.699 29.5997C26.517 30.0127 26.635 30.4977 26.985 30.7817C27.172 30.9337 31.139 34.2487 29.794 40.5497C28.457 38.7737 26.156 36.3707 23.495 36.3707C23.163 36.3707 22.854 36.5357 22.667 36.8107C22.481 37.0857 22.443 37.4347 22.567 37.7427C22.591 37.8027 24.785 43.3997 23 47.0827V47.0047H20.635C19.753 47.0047 18.9 46.7427 18.168 46.2477ZM53 50.0047H49V44.0047H62V50.0047H53ZM52 58.0047H43H39V52.0047H48H52V58.0047ZM67 50.0047H64V46.5317C66.446 44.6147 67.745 41.7767 67.745 38.3037C67.745 30.7187 61.747 28.3947 58.89 27.7197C58.684 24.1927 56.924 21.5747 54.094 20.6447C51.877 19.9167 49.482 20.4137 47.722 21.8747C46.852 19.9117 45.712 18.2157 44.322 16.8177C39.842 12.3117 33.713 11.0877 27.925 13.5467C22.987 15.6437 19.265 21.4327 19.267 27.0707L19.319 27.9737C16.624 28.8597 12 31.3797 12 38.2207C12 43.6717 15.162 46.6267 17.047 47.9037C18.111 48.6237 19.353 49.0047 20.635 49.0047H21.999C20.475 52.4387 20.691 56.3357 22.666 59.4397C25.276 63.5417 29.734 65.9907 34.591 65.9907C37.41 65.9907 40.002 65.2977 42 64.0517V67.0047C42 67.5567 42.447 68.0047 43 68.0047H57C57.553 68.0047 58 67.5567 58 67.0047V60.0047H67C67.553 60.0047 68 59.5567 68 59.0047V51.0047C68 50.4527 67.553 50.0047 67 50.0047Z" fill="white"/>
</g>
<defs>
<linearGradient id="paint0_linear_502_8555" x1="0" y1="8000" x2="8000" y2="0" gradientUnits="userSpaceOnUse">
<stop stop-color="#BD0816"/>
<stop offset="1" stop-color="#FF5252"/>
</linearGradient>
<clipPath id="clip0_502_8555">
<rect width="80" height="80" rx="15" fill="white"/>
</clipPath>
</defs>
</svg>
