<svg width="80" height="80" viewBox="0 0 80 80" fill="none" xmlns="http://www.w3.org/2000/svg">
<g clip-path="url(#clip0_502_8596)">
<path d="M80 0H0V80H80V0Z" fill="url(#paint0_linear_502_8596)"/>
<path fill-rule="evenodd" clip-rule="evenodd" d="M66 58H68V68H58V66H64.586L56.293 57.707L57.707 56.293L66 64.586V58ZM23.707 57.707L15.414 66H22V68H12V58H14V64.586L22.293 56.293L23.707 57.707ZM68 12V22H66V15.414L57.707 23.707L56.293 22.293L64.586 14H58V12H68ZM15.414 14L23.707 22.293L22.293 23.707L14 15.414V22H12V12H22V14H15.414ZM50.678 53.661C49.521 54.848 45.635 56.046 39.563 56.046C32.168 56.046 28.031 54.23 28 53V29.857C30.603 31.395 35.32 32 39.563 32C43.756 32 48.418 31.397 51 29.867V53.025C51.002 53.099 51.008 53.323 50.678 53.661ZM39.563 24C45.663 24 49.545 25.181 50.686 26.352C51.008 26.682 51.002 26.902 51 26.975V27C51 28.226 46.927 30 39.563 30C32.422 30 28.032 28.265 28.003 27.013C28.061 25.746 32.093 24 39.563 24ZM52.999 27C53.007 26.482 52.858 25.716 52.118 24.956C50.313 23.105 45.62 22 39.563 22C33.365 22 26.094 23.303 26 27V53.025C26.095 56.731 33.365 58.046 39.563 58.046C44.22 58.046 49.962 57.261 52.11 55.057C52.869 54.278 53.013 53.495 53 53V27.011V27.004L52.999 27Z" fill="white"/>
</g>
<defs>
<linearGradient id="paint0_linear_502_8596" x1="0" y1="8000" x2="8000" y2="0" gradientUnits="userSpaceOnUse">
<stop stop-color="#1B660F"/>
<stop offset="1" stop-color="#6CAE3E"/>
</linearGradient>
<clipPath id="clip0_502_8596">
<rect width="80" height="80" rx="15" fill="white"/>
</clipPath>
</defs>
</svg>
