<svg width="80" height="80" viewBox="0 0 80 80" fill="none" xmlns="http://www.w3.org/2000/svg">
<g clip-path="url(#clip0_502_8550)">
<path d="M80 0H0V80H80V0Z" fill="url(#paint0_linear_502_8550)"/>
<path fill-rule="evenodd" clip-rule="evenodd" d="M15.414 14L24.707 23.293L23.293 24.707L14 15.414V23H12V13C12 12.448 12.447 12 13 12H23V14H15.414ZM68 13V23H66V15.414L56.707 24.707L55.293 23.293L64.586 14H57V12H67C67.553 12 68 12.448 68 13ZM66 57H68V67C68 67.552 67.553 68 67 68H57V66H64.586L55.293 56.707L56.707 55.293L66 64.586V57ZM65.5 39.213C65.5 35.894 61.668 32.615 55.25 30.442L55.891 28.548C63.268 31.045 67.5 34.932 67.5 39.213C67.5 43.495 63.268 47.383 55.89 49.879L55.249 47.984C61.668 45.812 65.5 42.534 65.5 39.213ZM14.556 39.213C14.556 42.393 18.143 45.585 24.152 47.753L23.473 49.634C16.535 47.131 12.556 43.333 12.556 39.213C12.556 35.094 16.535 31.296 23.473 28.792L24.152 30.673C18.143 32.842 14.556 36.034 14.556 39.213ZM24.707 56.707L15.414 66H23V68H13C12.447 68 12 67.552 12 67V57H14V64.586L23.293 55.293L24.707 56.707ZM40 31.286C32.854 31.286 29 29.44 29 28.686C29 27.931 32.854 26.086 40 26.086C47.145 26.086 51 27.931 51 28.686C51 29.44 47.145 31.286 40 31.286ZM40.029 39.031C33.187 39.031 29 37.162 29 36.145V31.284C31.463 32.643 35.832 33.286 40 33.286C44.168 33.286 48.537 32.643 51 31.284V36.145C51 37.163 46.835 39.031 40.029 39.031ZM40.029 46.667C33.187 46.667 29 44.798 29 43.781V38.862C31.431 40.291 35.742 41.031 40.029 41.031C44.292 41.031 48.578 40.292 51 38.867V43.781C51 44.799 46.835 46.667 40.029 46.667ZM40 53.518C32.883 53.518 29 51.605 29 50.622V46.498C31.431 47.927 35.742 48.667 40.029 48.667C44.292 48.667 48.578 47.929 51 46.503V50.622C51 51.605 47.117 53.518 40 53.518ZM40 24.086C33.739 24.086 27 25.525 27 28.686V50.622C27 53.836 33.54 55.518 40 55.518C46.46 55.518 53 53.836 53 50.622V28.686C53 25.525 46.261 24.086 40 24.086Z" fill="white"/>
</g>
<defs>
<linearGradient id="paint0_linear_502_8550" x1="0" y1="8000" x2="8000" y2="0" gradientUnits="userSpaceOnUse">
<stop stop-color="#2E27AD"/>
<stop offset="1" stop-color="#527FFF"/>
</linearGradient>
<clipPath id="clip0_502_8550">
<rect width="80" height="80" rx="15" fill="white"/>
</clipPath>
</defs>
</svg>
