<svg width="80" height="80" viewBox="0 0 80 80" fill="none" xmlns="http://www.w3.org/2000/svg">
<g clip-path="url(#clip0_502_8544)">
<path d="M80 0H0V80H80V0Z" fill="url(#paint0_linear_502_8544)"/>
<path fill-rule="evenodd" clip-rule="evenodd" d="M15.0664 20.912C15.9094 23.867 25.6484 27 38.5004 27C51.3304 27 61.0584 23.878 61.9294 20.927L61.9934 20.477C61.9204 19.16 54.3644 14 38.5004 14C22.6334 14 15.0794 19.161 15.0064 20.478L15.0664 20.912ZM61.2194 40.189L60.8364 42.892C64.1964 43.719 64.7994 43.214 64.8054 43.209C64.8064 43.185 64.7604 42.308 61.2194 40.189ZM45.6784 65.558L45.9304 67.542C43.5334 67.846 41.0314 68 38.4944 68C30.8614 68 18.7754 66.309 18.6414 61.777L13.0934 21.253C13.0484 21.058 13.0214 20.859 13.0114 20.657L13.0084 20.636C13.0064 20.59 13.0004 20.546 13.0004 20.5C13.0004 17.034 22.9334 12 38.5004 12C54.0664 12 64.0004 17.034 64.0004 20.5C64.0004 20.547 63.9914 20.593 63.9894 20.64L63.9884 20.65C63.9794 20.869 63.9474 21.082 63.8974 21.292L61.5214 38.054C64.8684 39.964 66.5104 41.456 66.7694 42.84C66.8834 43.451 66.7324 44.024 66.3344 44.499C65.8484 45.077 65.0484 45.365 63.8664 45.365C62.9854 45.365 61.8874 45.202 60.5534 44.883L60.4254 45.787L58.4454 45.507L58.6084 44.355C52.4434 42.534 43.9864 38.681 39.9274 36.76C39.5104 37.106 38.9834 37.322 38.4014 37.322C37.0774 37.322 35.9994 36.244 35.9994 34.919C35.9994 33.594 37.0774 32.516 38.4014 32.516C39.7264 32.516 40.8044 33.594 40.8044 34.919C40.8044 34.933 40.8004 34.947 40.8004 34.961C44.2504 36.59 52.7734 40.501 58.8924 42.352L61.4414 24.373C57.0224 27.399 47.5554 29 38.5004 29C29.4294 29 19.9474 27.394 15.5384 24.359L20.6314 61.565C20.6374 61.61 20.6404 61.656 20.6404 61.701C20.6404 63.217 27.4194 66 38.4944 66C40.9474 66 43.3654 65.851 45.6784 65.558ZM63.9664 57.869L66.3374 60.239L64.9224 61.653L62.2694 59H57.5164L59.7754 62.917L63.5874 63.99L63.0454 65.914L59.8714 65.021L59.0044 68.259L57.0724 67.741L58.0794 63.98L55.7254 59.897L53.4024 63.914L54.3794 67.753L52.4424 68.246L51.6284 65.051L48.3914 65.918L47.8744 63.986L51.6334 62.979L53.9354 59H49.2464L46.5174 61.662L45.1214 60.23L47.4824 57.927L45.1124 55.557L46.5264 54.143L49.3824 57H54.0534L51.6694 52.877L47.8624 51.806L48.4034 49.881L51.5784 50.774L52.4454 47.537L54.3774 48.055L53.3684 51.822L55.7254 55.898L58.0454 51.875L57.0694 48.042L59.0064 47.549L59.8214 50.745L63.0574 49.878L63.5754 51.809L59.8094 52.818L57.3994 57H61.9934L64.9314 54.134L66.3284 55.566L63.9664 57.869Z" fill="white"/>
</g>
<defs>
<linearGradient id="paint0_linear_502_8544" x1="0" y1="8000" x2="8000" y2="0" gradientUnits="userSpaceOnUse">
<stop stop-color="#1B660F"/>
<stop offset="1" stop-color="#6CAE3E"/>
</linearGradient>
<clipPath id="clip0_502_8544">
<rect width="80" height="80" rx="15" fill="white"/>
</clipPath>
</defs>
</svg>
