<svg width="80" height="80" viewBox="0 0 80 80" fill="none" xmlns="http://www.w3.org/2000/svg">
<g clip-path="url(#clip0_502_8611)">
<path d="M80 0H0V80H80V0Z" fill="url(#paint0_linear_502_8611)"/>
<path fill-rule="evenodd" clip-rule="evenodd" d="M53 39.9632H58V37.9601H53V39.9632ZM28 51.9816H33V49.9785H28V51.9816ZM18 51.9816H25V49.9785H18V51.9816ZM18 45.9724H30V43.9693H18V45.9724ZM18 33.954H27V31.9509H18V33.954ZM18 39.9632H51V37.9601H18V39.9632ZM37 61.9969H14V27.9448H37V35.9571H39V26.9433C39 26.3904 38.552 25.9417 38 25.9417H13C12.447 25.9417 12 26.3904 12 26.9433V62.9985C12 63.5513 12.447 64 13 64H38C38.552 64 39 63.5513 39 62.9985V42.9678H37V61.9969ZM68 36.9586C68 43.4305 62.173 45.682 59.092 45.9684L43 45.9724V43.9693H59C59.195 43.9463 66 43.2122 66 36.9586C66 31.2639 60.863 30.1081 59.834 29.9339C59.321 29.8467 58.96 29.382 59.004 28.8632C59.005 28.8442 59.007 28.8262 59.009 28.8081C58.954 25.5902 56.981 24.5847 56.126 24.3002C54.53 23.7694 52.751 24.2772 51.81 25.5391C51.591 25.8356 51.229 25.9868 50.861 25.9307C50.497 25.8756 50.192 25.6253 50.068 25.2767C49.447 23.5361 48.546 22.4083 47.293 21.1534C44.159 18.0386 39.905 17.1783 35.925 18.8529C33.837 19.7332 32.012 21.7283 30.922 24.3273L29.078 23.5501C30.37 20.4744 32.584 18.0887 35.15 17.0071C39.905 15.005 44.971 16.0256 48.704 19.7342C49.774 20.8069 50.66 21.8515 51.35 23.2035C52.843 22.0979 54.857 21.7673 56.757 22.3993C59.189 23.2086 60.727 25.3208 60.975 28.1291C64.381 28.9884 68 31.7116 68 36.9586Z" fill="white"/>
</g>
<defs>
<linearGradient id="paint0_linear_502_8611" x1="0" y1="8000" x2="8000" y2="0" gradientUnits="userSpaceOnUse">
<stop stop-color="#B0084D"/>
<stop offset="1" stop-color="#FF4F8B"/>
</linearGradient>
<clipPath id="clip0_502_8611">
<rect width="80" height="80" rx="15" fill="white"/>
</clipPath>
</defs>
</svg>
