<svg width="80" height="80" viewBox="0 0 80 80" fill="none" xmlns="http://www.w3.org/2000/svg">
<g clip-path="url(#clip0_502_8529)">
<path d="M80 0H0V80H80V0Z" fill="url(#paint0_linear_502_8529)"/>
<path fill-rule="evenodd" clip-rule="evenodd" d="M61 41.3717L55.5 39.1717V59.1227C57.106 58.9627 58.401 58.4347 59.321 57.5007C61.021 55.7727 61.001 53.2397 61 53.2147V41.3717ZM53.5 59.1357V39.1717L48 41.3717V53.1947C48.007 53.4017 48.234 58.5517 53.5 59.1357ZM63 53.1947C63.003 53.3077 63.053 56.5417 60.765 58.8847C59.269 60.4177 57.16 61.1947 54.5 61.1947C47.927 61.1947 46.065 55.9767 46 53.2187V40.6947C46 40.2857 46.249 39.9177 46.629 39.7657L54.129 36.7657C54.367 36.6707 54.633 36.6707 54.871 36.7657L62.371 39.7657C62.751 39.9177 63 40.2857 63 40.6947V53.1947ZM66.001 51.2287L66 37.8717L54.5 33.2717L43 37.8717V51.1947C42.998 51.2857 42.865 57.4227 46.534 61.1987C48.466 63.1867 51.146 64.1947 54.5 64.1947C57.877 64.1947 60.57 63.1797 62.504 61.1787C66.168 57.3867 66.003 51.2897 66.001 51.2287ZM63.942 62.5677C61.617 64.9747 58.44 66.1947 54.5 66.1947C50.579 66.1947 47.413 64.9787 45.09 62.5807C40.831 58.1877 40.991 51.4477 41 51.1637V37.1947C41 36.7857 41.249 36.4177 41.629 36.2657L54.129 31.2657C54.367 31.1707 54.633 31.1707 54.871 31.2657L67.371 36.2657C67.751 36.4177 68 36.7857 68 37.1947V51.1947C68.009 51.4447 68.189 58.1727 63.942 62.5677ZM23.055 47.1947H38V49.1947H23.055C16.977 49.1947 12.337 45.1427 12.024 39.5597C12.002 39.3317 12 39.0657 12 38.7997C12 31.9307 16.803 29.4017 19.604 28.5117C19.584 28.1907 19.574 27.8657 19.574 27.5387C19.574 22.0857 23.464 16.3807 28.621 14.2687C34.677 11.7887 41.062 12.9897 45.695 17.4757C47.256 18.9967 48.446 20.6207 49.307 22.4097C50.513 21.3747 51.969 20.8187 53.529 20.8187C56.834 20.8187 60.33 23.4127 60.931 28.3817C63.114 28.9317 65.854 30.0997 67.788 32.5797L66.212 33.8097C64.43 31.5237 61.741 30.5717 59.8 30.1737C59.355 30.0837 59.028 29.7057 59.002 29.2537C58.741 24.8327 55.982 22.8187 53.529 22.8187C52.067 22.8187 50.771 23.5087 49.78 24.8137C49.559 25.1057 49.199 25.2567 48.835 25.1987C48.474 25.1437 48.17 24.8967 48.045 24.5537C47.278 22.4637 46.054 20.6177 44.302 18.9107C40.258 14.9967 34.676 13.9517 29.379 16.1197C24.93 17.9417 21.574 22.8507 21.574 27.5387C21.574 28.0797 21.605 28.6147 21.668 29.1277C21.729 29.6287 21.405 30.0967 20.915 30.2187C18.333 30.8577 14 32.8237 14 38.7997C14 39.0017 13.998 39.2047 14.018 39.4077C14.272 43.9357 18.072 47.1947 23.055 47.1947Z" fill="white"/>
</g>
<defs>
<linearGradient id="paint0_linear_502_8529" x1="0" y1="8000" x2="8000" y2="0" gradientUnits="userSpaceOnUse">
<stop stop-color="#4D27A8"/>
<stop offset="1" stop-color="#A166FF"/>
</linearGradient>
<clipPath id="clip0_502_8529">
<rect width="80" height="80" rx="15" fill="white"/>
</clipPath>
</defs>
</svg>
