<svg width="232" height="89" viewBox="0 0 232 89" fill="none" xmlns="http://www.w3.org/2000/svg">
<path d="M227.796 85.7593C229.577 60.1958 230.084 64.9881 212.245 42.418C208.171 37.2633 203.352 29.6004 195.452 27.1973C183.794 23.651 146.392 34.7098 158.697 45.5523C166.65 52.5595 181.464 52.8102 186.27 43.8057C194.151 29.039 176.516 14.8193 160.699 8.44013C143.285 1.41697 123.237 3.92043 110.05 15.163C104.025 20.299 105.606 29.6898 117.712 25.8089C142.612 17.8266 114.801 3.05178 98.7719 3.11403C69.9001 3.22617 29.9414 24.1029 33.6479 47.6584C34.8068 55.0233 39.19 53.0823 42.5584 50.369C45.9764 47.6158 58.1166 41.0402 53.5907 42.6816C45.6785 45.5511 42.1885 49.8327 37.2489 54.5137C30.8776 60.5514 19.7535 45.1737 15.6897 40.6365C13.5563 38.2546 8.61219 34.6133 4.84628 33.6568C-2.58999 31.768 16.321 41.9978 23.5893 44.2088" stroke="#00F4FF" stroke-opacity="0.2" stroke-width="5" stroke-linecap="round" stroke-linejoin="round"/>
</svg>
